<svg width="32" height="32" viewBox="0 0 32 32" fill="none" xmlns="http://www.w3.org/2000/svg">
<rect width="32" height="32" rx="6" fill="white"/>
<path d="M30.3095 8C30.2816 8.0736 30.2126 8.07932 30.1498 8.09397C29.9862 8.1322 29.8211 8.16472 29.6591 8.20938C28.9374 8.40768 28.2622 8.71246 27.625 9.10371C27.3335 9.28308 27.0506 9.47424 26.7808 9.68611C26.3986 9.98732 26.0777 10.3471 25.794 10.7412C25.2366 11.5166 24.6808 12.2934 24.1227 13.0683C22.7498 14.9753 21.3761 16.8819 20.0025 18.7884C19.2885 19.7792 18.573 20.7686 17.8591 21.7594C17.7544 21.9045 17.6831 21.9538 17.9498 22.0156C19.0374 22.2685 20.1234 22.5297 21.2102 22.7877C21.8955 22.9506 22.5816 23.1129 23.2676 23.2762C23.3707 23.3008 23.4746 23.3269 23.5661 23.3826C23.5529 23.4201 23.5281 23.4109 23.5102 23.4119C23.4723 23.414 23.4335 23.413 23.3963 23.413C21.6033 23.413 19.811 23.4144 18.0188 23.4127C16.5095 23.4112 14.9994 23.4055 13.4893 23.4044C13.163 23.4041 12.8382 23.3805 12.5133 23.3594C12.1839 23.3383 11.8537 23.3055 11.5258 23.2647C10.7645 23.1697 10.0211 23.001 9.30637 22.7144C8.76296 22.4965 8.26451 22.2014 7.81498 21.8283C7.32722 21.4231 6.92559 20.9415 6.58714 20.4049C6.31381 19.9718 6.09544 19.5127 5.90001 19.041C5.82133 18.8506 5.73807 18.6623 5.65342 18.4744C5.62156 18.4039 5.61056 18.3289 5.58691 18.2468C5.72877 18.1453 5.8642 18.0316 6.04614 17.9924C6.19761 17.9595 6.34847 17.9606 6.49854 17.987C6.77544 18.036 7.02312 18.1556 7.25862 18.306C7.60234 18.5262 7.9211 18.7788 8.22652 19.0481C8.46683 19.2597 8.71102 19.4677 8.98079 19.6417C9.26141 19.8225 9.56219 19.9532 9.88932 20.0289C10.3312 20.1319 10.7606 20.0961 11.1839 19.9371C11.5847 19.786 11.9374 19.5563 12.263 19.2808C12.6971 18.9135 13.063 18.4847 13.3947 18.0263C14.1521 16.9798 14.9048 15.93 15.6591 14.8817C16.6095 13.5596 17.5591 12.2376 18.5095 10.9156C18.8226 10.4793 19.1327 10.0402 19.4521 9.60823C19.8475 9.0737 20.3475 8.66673 20.963 8.40661C21.2746 8.27512 21.5986 8.18687 21.932 8.13435C22.2699 8.08111 22.6079 8.03394 22.9506 8.0268C22.9831 8.02608 23.0164 8.02858 23.0413 8.00036C25.4637 8 27.887 8 30.3095 8Z" fill="url(#paint0_linear_907_12146)"/>
<path d="M1 9.73191C1.07364 9.73191 1.13325 9.73191 1.19294 9.73191C2.80031 9.73084 4.40767 9.72977 6.01496 9.72834C6.19969 9.72834 6.38449 9.7237 6.56883 9.72941C7.0241 9.74371 7.46224 9.8366 7.87535 10.032C8.42139 10.2907 8.79426 10.7124 9.01984 11.2676C9.26248 11.8654 9.50124 12.4649 9.74233 13.0634C10.0462 13.8177 10.3501 14.5719 10.6547 15.3262C10.6726 15.3716 10.6904 15.417 10.7059 15.4631C10.7384 15.5602 10.7167 15.6417 10.6408 15.7135C10.3477 15.9908 10.0098 16.0805 9.62062 15.9629C9.51132 15.9297 9.40899 15.88 9.30744 15.8278C9.15783 15.7511 9.00744 15.6764 8.85085 15.6138C8.46636 15.4595 8.0679 15.3934 7.65628 15.4277C7.0238 15.4802 6.52348 15.7704 6.15682 16.2895C5.8624 16.7061 5.70589 17.1745 5.6269 17.6741C5.60263 17.8288 5.59798 17.9863 5.55542 18.1378C5.51651 18.1478 5.50752 18.1175 5.4979 18.095C5.44503 17.9703 5.39387 17.8448 5.34279 17.719C4.95046 16.7551 4.55953 15.7907 4.16573 14.8271C3.90131 14.1796 3.63294 13.534 3.36666 12.8869C3.18945 12.4556 3.01612 12.0229 2.83566 11.5927C2.67519 11.2104 2.46829 10.8546 2.19496 10.5409C1.92232 10.2278 1.58674 10.0035 1.19907 9.85661C1.13791 9.83339 1.07612 9.81302 1.02178 9.77622C1.01465 9.77158 1.01287 9.75871 1 9.73191Z" fill="url(#paint1_linear_907_12146)"/>
<path d="M7.51691 16.7648C7.51761 16.9313 7.37505 17.076 7.20706 17.0796C7.0373 17.0831 6.88047 16.927 6.88435 16.7584C6.8883 16.5965 7.04303 16.4468 7.2042 16.4492C7.36861 16.4522 7.51613 16.6008 7.51691 16.7648Z" fill="url(#paint2_linear_907_12146)"/>
<defs>
<linearGradient id="paint0_linear_907_12146" x1="16.8591" y1="15.7023" x2="5.71137" y2="19.6845" gradientUnits="userSpaceOnUse">
<stop stop-color="#AD8F59"/>
<stop offset="1" stop-color="#CCB88D"/>
</linearGradient>
<linearGradient id="paint1_linear_907_12146" x1="16.8594" y1="15.7024" x2="5.71166" y2="19.6846" gradientUnits="userSpaceOnUse">
<stop stop-color="#AD8F59"/>
<stop offset="1" stop-color="#CCB88D"/>
</linearGradient>
<linearGradient id="paint2_linear_907_12146" x1="16.859" y1="15.7039" x2="5.71129" y2="19.6861" gradientUnits="userSpaceOnUse">
<stop stop-color="#AD8F59"/>
<stop offset="1" stop-color="#CCB88D"/>
</linearGradient>
</defs>
</svg>
