<svg width="24" height="24" viewBox="0 0 24 24" fill="none" xmlns="http://www.w3.org/2000/svg">
<path opacity="0.4" d="M16.191 2H7.81C4.77 2 3 3.78 3 6.83V17.16C3 20.26 4.77 22 7.81 22H16.191C19.28 22 21 20.26 21 17.16V6.83C21 3.78 19.28 2 16.191 2Z" fill="#6E768A"/>
<path d="M8.08008 15.7402H15.9199C16.3189 15.7802 16.6201 16.1203 16.6201 16.5303C16.6201 16.9293 16.3189 17.2705 15.9199 17.3105H8.08008C7.78008 17.3505 7.49008 17.2002 7.33008 16.9502C7.17013 16.6902 7.1701 16.3603 7.33008 16.1104C7.49009 15.8504 7.78011 15.7102 8.08008 15.7402ZM15.9199 11.1797C16.3498 11.1797 16.7 11.5302 16.7002 11.96C16.7002 12.39 16.3499 12.7402 15.9199 12.7402H8.08008C7.64908 12.7402 7.2998 12.39 7.2998 11.96C7.30004 11.5302 7.64922 11.1797 8.08008 11.1797H15.9199ZM11.0693 6.65039C11.5002 6.65059 11.8496 7.00081 11.8496 7.42969C11.8495 7.87042 11.5001 8.2205 11.0693 8.2207H8.08008C7.64909 8.2207 7.29983 7.87041 7.2998 7.44043C7.2998 7.01043 7.64908 6.66016 8.08008 6.66016V6.65039H11.0693Z" fill="#6E768A"/>
</svg>
