<svg width="24" height="24" viewBox="0 0 24 24" fill="none" xmlns="http://www.w3.org/2000/svg">
<path opacity="0.4" d="M16.0756 2H19.4616C20.8639 2 22.0001 3.14585 22.0001 4.55996V7.97452C22.0001 9.38864 20.8639 10.5345 19.4616 10.5345H16.0756C14.6734 10.5345 13.5371 9.38864 13.5371 7.97452V4.55996C13.5371 3.14585 14.6734 2 16.0756 2Z" fill="#6E768A"/>
<path d="M7.9248 13.4658C9.3269 13.466 10.4628 14.6114 10.4629 16.0254V19.4404C10.4627 20.8533 9.3268 21.9998 7.9248 22H4.53809C3.13615 21.9998 2.00021 20.8533 2 19.4404V16.0254C2.00005 14.6115 3.13605 13.4661 4.53809 13.4658H7.9248ZM19.4619 13.4658C20.864 13.4661 22 14.6115 22 16.0254V19.4404C21.9998 20.8533 20.8639 21.9998 19.4619 22H16.0752C14.6732 21.9998 13.5373 20.8533 13.5371 19.4404V16.0254C13.5372 14.6114 14.6731 13.466 16.0752 13.4658H19.4619ZM7.9248 2C9.3268 2.00017 10.4627 3.14575 10.4629 4.55957V7.97461C10.4628 9.38858 9.3269 10.534 7.9248 10.5342H4.53809C3.13605 10.5339 2.00005 9.38853 2 7.97461V4.55957C2.00021 3.14579 3.13615 2.00024 4.53809 2H7.9248Z" fill="#6E768A"/>
</svg>
