<svg width="24" height="24" viewBox="0 0 24 24" fill="none" xmlns="http://www.w3.org/2000/svg">
<path opacity="0.4" d="M13.3051 5.88243V6.06547C12.8144 6.05584 12.3237 6.05584 11.8331 6.05584V5.89206C11.8331 5.22733 11.2737 4.68784 10.6064 4.68784H9.63482C8.52589 4.68784 7.62305 3.80152 7.62305 2.72254C7.62305 2.32755 7.95671 2 8.35906 2C8.77123 2 9.09508 2.32755 9.09508 2.72254C9.09508 3.01155 9.34042 3.24276 9.63482 3.24276H10.6064C12.0882 3.2524 13.2953 4.43736 13.3051 5.88243Z" fill="#8A92A6"/>
<path fill-rule="evenodd" clip-rule="evenodd" d="M15.164 6.08231C15.4791 6.08663 15.7949 6.09096 16.1119 6.0942C19.5172 6.0942 22 8.52192 22 11.8745V16.1808C22 19.5334 19.5172 21.9611 16.1119 21.9611C14.7478 21.99 13.3837 21.9996 12.0098 21.9996C10.6359 21.9996 9.25221 21.99 7.88813 21.9611C4.48283 21.9611 2 19.5334 2 16.1808V11.8745C2 8.52192 4.48283 6.0942 7.89794 6.0942C9.18351 6.07493 10.4985 6.05566 11.8332 6.05566C12.3238 6.05566 12.8145 6.05566 13.3052 6.0653C13.9238 6.0653 14.5425 6.07378 15.164 6.08231ZM10.8518 14.7454H9.82139V15.7666C9.82139 16.1615 9.48773 16.4891 9.08538 16.4891C8.67321 16.4891 8.34936 16.1615 8.34936 15.7666V14.7454H7.30913C6.90677 14.7454 6.57311 14.4275 6.57311 14.0228C6.57311 13.6278 6.90677 13.3003 7.30913 13.3003H8.34936V12.2887C8.34936 11.8938 8.67321 11.5662 9.08538 11.5662C9.48773 11.5662 9.82139 11.8938 9.82139 12.2887V13.3003H10.8518C11.2542 13.3003 11.5878 13.6278 11.5878 14.0228C11.5878 14.4275 11.2542 14.7454 10.8518 14.7454ZM15.0226 13.1173H15.1207C15.5231 13.1173 15.8567 12.7993 15.8567 12.3947C15.8567 11.9997 15.5231 11.6722 15.1207 11.6722H15.0226C14.6104 11.6722 14.2866 11.9997 14.2866 12.3947C14.2866 12.7993 14.6104 13.1173 15.0226 13.1173ZM16.7007 16.4313H16.7988C17.2012 16.4313 17.5348 16.1134 17.5348 15.7087C17.5348 15.3138 17.2012 14.9862 16.7988 14.9862H16.7007C16.2885 14.9862 15.9647 15.3138 15.9647 15.7087C15.9647 16.1134 16.2885 16.4313 16.7007 16.4313Z" fill="#8A92A6"/>
</svg>
