<svg width="226" height="57" viewBox="0 0 226 57" fill="none" xmlns="http://www.w3.org/2000/svg">
<g clip-path="url(#clip0_287_27893)">
<path d="M140.227 18.5039C140.565 18.7914 140.823 19.0864 141.098 19.3624C141.376 19.6427 141.65 19.9254 141.925 20.2081C142.209 20.4998 142.492 20.7922 142.775 21.0839C143.05 21.3673 143.324 21.65 143.599 21.9336C143.873 22.217 144.146 22.5013 144.42 22.7856C144.694 23.0692 144.969 23.3519 145.234 23.6263C145.337 23.6279 145.377 23.5595 145.429 23.509C147.357 21.6273 149.643 20.4314 152.264 19.8693C153.494 19.6052 154.736 19.4643 155.992 19.5026C157.968 19.5628 159.86 19.9783 161.602 20.9584C163.891 22.2471 165.419 24.1754 166.271 26.6609C166.598 27.6116 166.779 28.5933 166.873 29.5953C167.035 31.302 166.846 32.9794 166.491 34.6437C166.096 36.4946 165.445 38.2486 164.478 39.8763C162.767 42.7593 160.377 44.8692 157.32 46.2027C156.146 46.7152 154.917 47.0533 153.654 47.2708C152.67 47.4402 151.68 47.503 150.685 47.4647C149.141 47.407 147.639 47.1404 146.209 46.5229C145.518 46.2247 144.87 45.8525 144.271 45.3931C144.214 45.349 144.167 45.2872 144.084 45.2782C144.005 45.2994 144.027 45.3734 144.019 45.4273C143.898 46.2216 143.78 47.0166 143.662 47.8109C143.524 48.7405 143.387 49.6699 143.25 50.5995C143.117 51.5046 142.986 52.4096 142.851 53.3147C142.684 54.4398 142.516 55.5648 142.345 56.689C142.315 56.8862 142.308 56.8869 142.113 56.8927C142.039 56.8952 141.966 56.8934 141.892 56.8934C139.694 56.8934 137.497 56.8943 135.299 56.8927C134.886 56.8927 134.865 56.9562 134.941 56.4756C135.091 55.5354 135.212 54.5912 135.344 53.6488C135.507 52.4975 135.671 51.3473 135.83 50.1963C135.99 49.0452 136.143 47.8932 136.303 46.7421C136.463 45.591 136.628 44.4407 136.788 43.2896C136.948 42.1385 137.101 40.9865 137.261 39.8355C137.421 38.6844 137.587 37.5342 137.746 36.3831C137.906 35.2318 138.059 34.08 138.218 32.929C138.378 31.7777 138.544 30.6275 138.703 29.4764C138.863 28.3253 139.016 27.1734 139.175 26.0223C139.335 24.8712 139.501 23.7208 139.66 22.5697C139.82 21.4186 139.974 20.2667 140.132 19.1156C140.158 18.9316 140.189 18.749 140.227 18.5039ZM153.684 25.5733C152.901 25.5351 152.122 25.7037 151.362 25.9554C149.603 26.5363 148.171 27.5644 147.142 29.1342C146.843 29.5904 146.614 30.0834 146.406 30.5844C146.211 31.052 146.06 31.5309 145.993 32.0409C145.874 32.9476 145.721 33.8494 145.586 34.7545C145.515 35.2311 145.442 35.7084 145.392 36.1875C145.343 36.6535 145.317 37.1177 145.422 37.5871C145.586 38.3121 145.87 38.9736 146.338 39.548C147.216 40.6241 148.377 41.1918 149.72 41.3931C150.598 41.525 151.48 41.4892 152.357 41.3238C154.002 41.0143 155.404 40.26 156.563 39.0452C157.042 38.5435 157.45 37.9879 157.8 37.389C158.226 36.6609 158.526 35.8787 158.779 35.0754C159.177 33.8153 159.375 32.5256 159.342 31.2051C159.322 30.4092 159.179 29.6312 158.897 28.8849C158.319 27.3567 157.278 26.314 155.709 25.8398C155.058 25.6435 154.391 25.5547 153.684 25.5733Z" fill="white"/>
<path d="M40.7059 46.8396C40.7511 46.5195 40.7932 46.2033 40.8407 45.8889C40.982 44.9479 41.125 44.0071 41.268 43.0662C41.2793 42.9936 41.2849 42.9154 41.3147 42.8504C41.4861 42.482 41.6621 42.1277 41.9624 41.8303C44.4588 39.3603 46.9421 36.8764 49.4304 34.3966C51.6037 32.2304 53.7745 30.0611 55.9534 27.9005C56.5131 27.3458 57.1009 26.8188 57.6728 26.2762C57.7398 26.2127 57.8367 26.1678 57.8513 26.0579C57.8061 25.9894 57.739 26.0244 57.6833 26.0188C57.6226 26.013 57.5605 26.0171 57.4991 26.0171C53.4854 26.0171 49.4716 26.0171 45.457 26.0171C45.3584 26.0171 45.2608 26.0188 45.1622 26.0164C44.9279 26.0123 44.9176 26.004 44.953 25.7556C45.0563 25.0461 45.1646 24.3373 45.2704 23.6285C45.3834 22.871 45.495 22.1126 45.608 21.3541C45.6646 20.9752 45.7203 20.5955 45.7808 20.2177C45.7922 20.1452 45.8204 20.0759 45.8398 20.0074C46.1944 19.9708 68.7143 19.9756 69.0195 20.0139C69.0356 20.2462 68.9687 20.4726 68.9356 20.6999C68.7797 21.776 68.6101 22.8506 68.4535 23.9267C68.4284 24.101 68.3734 24.259 68.3049 24.4188C68.157 24.7666 67.9309 25.0461 67.6635 25.3109C63.0941 29.8387 58.5305 34.3721 53.9642 38.9033C53.4134 39.4499 52.8561 39.9909 52.3022 40.5343C52.2586 40.5774 52.2134 40.6198 52.1706 40.6638C52.1382 40.6972 52.0923 40.7282 52.1221 40.7859C52.152 40.8437 52.2085 40.8168 52.2538 40.8193C52.3393 40.8242 52.4259 40.821 52.5114 40.821C53.3828 40.821 54.2542 40.821 55.1256 40.821C58.7097 40.821 62.2938 40.821 65.8788 40.821C66.4312 40.821 66.3287 40.7957 66.2189 41.2772C66.092 41.8312 65.9482 42.381 65.7965 42.9276C65.6397 43.489 65.4144 44.0241 65.1188 44.526C64.5058 45.5654 63.649 46.3043 62.4934 46.6694C61.9603 46.8372 61.4119 46.8787 60.8571 46.8787C57.8989 46.8771 54.9406 46.8778 51.9825 46.8778C48.3612 46.8778 44.7398 46.8787 41.1185 46.8771C40.9876 46.8787 40.8512 46.904 40.7059 46.8396Z" fill="white"/>
<path d="M12.112 37.3321C12.2089 37.249 12.2469 37.1276 12.3042 37.0209C14.3894 33.1391 16.4722 29.2565 18.5567 25.3739C19.4677 23.6778 20.3785 21.9817 21.2904 20.2855C21.3251 20.2203 21.3591 20.1543 21.3954 20.0901C21.4341 20.0208 21.4891 19.9817 21.5739 19.9865C21.6473 19.9914 21.7209 19.9865 21.7952 19.9865C24.2503 19.9865 26.7062 19.9865 29.1612 19.9874C29.2679 19.9874 29.3784 19.9669 29.4988 20.015C29.4891 20.1453 29.4035 20.2382 29.3437 20.341C28.3479 22.046 27.3523 23.7511 26.3532 25.4544C22.2393 32.4702 18.1247 39.4852 14.0091 46.5001C13.7426 46.9547 13.8774 46.8797 13.3606 46.8806C11.5192 46.884 9.67709 46.8822 7.83575 46.8822C7.79861 46.8822 7.76226 46.8822 7.72512 46.8822C7.32939 46.8806 7.39803 46.9035 7.30516 46.5694C6.85775 44.9629 6.41842 43.3549 5.97423 41.7475C4.68368 37.0803 3.39477 32.4132 2.10583 27.746C1.42179 25.2695 0.740176 22.793 0.0496778 20.3181C-0.0625787 19.9158 0.0109129 19.9874 0.316186 19.9874C1.89989 19.9849 3.48359 19.9865 5.06731 19.9865C5.46303 19.9865 5.84986 20.0477 6.22621 20.1691C6.96919 20.4101 7.54017 20.8795 7.96337 21.5311C8.25329 21.9783 8.46729 22.4582 8.5949 22.9837C9.47276 26.5974 10.3611 30.2079 11.2438 33.8201C11.5136 34.924 11.7987 36.0246 12.0199 37.1407C12.0337 37.21 12.0385 37.2865 12.112 37.3321Z" fill="white"/>
<path d="M94.8296 15.2427C94.8506 15.5376 94.7681 15.8251 94.7254 16.1151C94.5486 17.3005 94.3555 18.4841 94.1754 19.6695C94.1222 20.0222 94.1157 20.0132 94.4799 20.0132C96.5787 20.0125 98.6777 20.0116 100.776 20.0132C101.233 20.0132 101.201 19.9571 101.133 20.4328C100.996 21.3867 100.853 22.3407 100.711 23.2939C100.59 24.1127 100.467 24.9321 100.345 25.7509C100.32 25.9162 100.299 25.9342 100.132 25.9407C100.035 25.9439 99.936 25.9414 99.8375 25.9414C97.7636 25.9414 95.6888 25.9414 93.615 25.9423C93.2208 25.9423 93.2159 25.9423 93.1586 26.3195C93.023 27.2237 92.893 28.1289 92.7597 29.0338C92.6264 29.939 92.4923 30.8432 92.3583 31.7484C92.2225 32.6656 92.0869 33.582 91.9513 34.4993C91.8156 35.4159 91.6791 36.3332 91.5426 37.2496C91.4328 37.9837 91.3189 38.7168 91.3368 39.4631C91.3431 39.7482 91.365 40.0308 91.4417 40.307C91.5645 40.7486 91.8382 41.0387 92.2767 41.1632C92.4536 41.213 92.6329 41.2577 92.8179 41.2642C93.6779 41.2945 94.5381 41.2821 95.3844 41.1118C95.9125 41.0059 96.4295 40.8455 96.9512 40.7086C97.0819 40.6745 97.2112 40.637 97.3421 40.6052C97.4768 40.5726 97.5108 40.6043 97.4987 40.7575C97.4276 41.6822 97.3541 42.6069 97.2806 43.5307C97.2257 44.2206 97.17 44.9106 97.1134 45.6015C97.0908 45.8728 97.0602 46.1432 97.04 46.4137C97.0311 46.5286 96.981 46.5831 96.8704 46.619C96.2396 46.8226 95.6008 46.9913 94.9522 47.1313C93.8193 47.3766 92.6716 47.471 91.5176 47.4834C90.1568 47.4971 88.8299 47.2983 87.5636 46.764C86.6987 46.399 85.9622 45.8557 85.3411 45.1543C84.8945 44.6499 84.5923 44.0553 84.3679 43.4214C84.0417 42.5041 83.9117 41.5527 83.8987 40.5816C83.8858 39.6269 83.9632 38.6802 84.1151 37.7376C84.2605 36.8349 84.3793 35.9275 84.5124 35.0223C84.6473 34.1051 84.7854 33.1887 84.9219 32.2721C85.0543 31.3802 85.1861 30.4872 85.3201 29.5952C85.4541 28.7031 85.589 27.8111 85.7246 26.919C85.8604 26.0271 85.9969 25.135 86.1318 24.2428C86.2674 23.3509 86.4038 22.4588 86.5372 21.5668C86.6736 20.6503 86.8068 19.7323 86.9426 18.8157C87.1088 17.6907 87.2768 16.5665 87.4441 15.4414C87.4513 15.3925 87.4569 15.3437 87.4667 15.2948C87.4779 15.2394 87.516 15.2125 87.5701 15.2101C87.6556 15.2068 87.7421 15.2052 87.8276 15.2052C90.0494 15.2052 92.2711 15.2044 94.492 15.206C94.6026 15.206 94.7149 15.1816 94.8296 15.2427Z" fill="white"/>
<path d="M106.249 18.6855C106.423 18.837 106.543 18.9405 106.661 19.0448C108.107 20.3099 109.553 21.5751 110.999 22.8402C111.262 23.07 111.214 23.065 111.454 22.8166C111.677 22.586 111.899 22.3547 112.132 22.1356C113.419 20.9226 114.942 20.169 116.66 19.8065C117.759 19.5743 118.871 19.5001 119.99 19.5214C120.198 19.5254 120.405 19.5573 120.613 19.5775C121.162 19.6313 121.711 19.6867 122.26 19.7413C122.284 19.7437 122.309 19.7446 122.334 19.7478C122.448 19.7649 122.479 19.8057 122.463 19.9221C122.418 20.2399 122.37 20.5585 122.324 20.8762C122.182 21.8545 122.039 22.8328 121.898 23.8113C121.772 24.6797 121.647 25.5481 121.521 26.4166C121.502 26.5501 121.463 26.5737 121.318 26.542C121.066 26.4882 120.816 26.4215 120.563 26.3783C119.315 26.164 118.073 26.1599 116.852 26.5428C115.467 26.9762 114.374 27.8226 113.52 28.9909C112.832 29.9327 112.403 30.9916 112.188 32.1354C112.067 32.779 111.985 33.429 111.887 34.0768C111.749 34.9932 111.611 35.9098 111.474 36.8262C111.342 37.706 111.211 38.5866 111.078 39.4664C110.939 40.3952 110.799 41.3239 110.66 42.2535C110.527 43.1454 110.396 44.0382 110.262 44.9304C110.17 45.5413 110.076 46.1523 109.979 46.7624C109.955 46.9141 109.939 46.9238 109.794 46.9303C109.745 46.9327 109.695 46.9312 109.647 46.9312C107.376 46.9312 105.106 46.9312 102.835 46.9312C102.452 46.9312 102.494 46.9352 102.538 46.5825C102.638 45.7727 102.752 44.9645 102.859 44.1565C102.971 43.3231 103.081 42.4904 103.192 41.6571C103.301 40.8359 103.408 40.0148 103.518 39.1936C103.629 38.3602 103.742 37.5276 103.853 36.6942C103.968 35.8364 104.084 34.9793 104.197 34.1215C104.306 33.3004 104.412 32.4792 104.521 31.658C104.632 30.8246 104.746 29.9921 104.856 29.1586C104.965 28.3375 105.074 27.5163 105.182 26.6951C105.29 25.8741 105.398 25.0528 105.507 24.2316C105.62 23.3861 105.733 22.5413 105.846 21.6956C105.977 20.7214 106.107 19.7429 106.249 18.6855Z" fill="white"/>
<path d="M40.561 20.0276C40.5691 20.3487 40.4972 20.6639 40.4536 20.9799C40.2977 22.1067 40.1297 23.2318 39.9633 24.3568C39.78 25.5918 39.591 26.8259 39.4068 28.0609C39.2471 29.1371 39.0936 30.2141 38.9336 31.2902C38.7737 32.3664 38.6074 33.4418 38.4475 34.5171C38.2875 35.5932 38.1349 36.6702 37.975 37.7464C37.8152 38.8225 37.6496 39.8978 37.4897 40.9739C37.3313 42.0379 37.1778 43.1026 37.0205 44.1666C36.8961 45.0105 36.7702 45.8537 36.6433 46.6976C36.619 46.859 36.5948 46.8778 36.4277 46.8843C36.3664 46.8868 36.3049 46.885 36.2435 46.885C33.9969 46.885 31.75 46.885 29.5033 46.885C29.3943 46.885 29.2861 46.885 29.1997 46.885C29.1011 46.7881 29.1422 46.6985 29.1545 46.6195C29.3111 45.5678 29.4742 44.5177 29.6317 43.4661C29.7673 42.5609 29.8973 41.6558 30.0306 40.7508C30.1622 39.8578 30.2947 38.965 30.4271 38.0722C30.5638 37.1549 30.7002 36.2385 30.8367 35.321C30.9732 34.4038 31.1097 33.4874 31.2461 32.5701C31.3802 31.6649 31.5142 30.7598 31.6482 29.8556C31.7824 28.9506 31.9156 28.0454 32.0496 27.1403C32.1854 26.223 32.3218 25.3058 32.4583 24.3894C32.5948 23.4721 32.7313 22.5555 32.8677 21.6382C32.9283 21.235 32.9881 20.8309 33.0503 20.4277C33.0673 20.3177 33.0906 20.2085 33.1091 20.0994C33.1214 20.0294 33.1593 19.9919 33.2313 19.9919C33.3168 19.9919 33.4031 19.9894 33.4888 19.9894C35.7234 19.9894 37.9573 19.9886 40.1919 19.991C40.3114 19.9886 40.4366 19.9585 40.561 20.0276Z" fill="white"/>
<path d="M81.3779 20.0243C81.3584 20.202 81.3439 20.3844 81.318 20.5653C81.1864 21.4826 81.0531 22.3998 80.9183 23.3171C80.7859 24.2222 80.651 25.1265 80.517 26.0316C80.3803 26.948 80.2438 27.8653 80.1074 28.7819C79.9733 29.6862 79.8402 30.5911 79.706 31.4963C79.5695 32.4128 79.4324 33.3292 79.2959 34.2465C79.1634 35.1386 79.0317 36.0315 78.8992 36.9234C78.7612 37.8521 78.6223 38.7817 78.4849 39.7104C78.3509 40.6147 78.2184 41.5198 78.0844 42.4248C77.9528 43.3176 77.8211 44.2097 77.6886 45.1025C77.6249 45.5302 77.5602 45.9579 77.4949 46.3856C77.4739 46.5202 77.4488 46.6537 77.4253 46.7872C77.4157 46.8435 77.3785 46.872 77.326 46.8761C77.2526 46.8819 77.179 46.8834 77.1056 46.8834C74.8354 46.8834 72.5644 46.8834 70.2942 46.8841C69.9139 46.8841 69.9495 46.8915 69.9962 46.5363C70.1166 45.6296 70.2499 44.7247 70.3815 43.8195C70.5188 42.8778 70.6593 41.9369 70.7998 40.9959C70.9605 39.9206 71.1236 38.8452 71.2836 37.77C71.4176 36.8657 71.5478 35.9597 71.6818 35.0554C71.8409 33.9793 72.004 32.904 72.163 31.8286C72.2971 30.9243 72.4288 30.0194 72.5628 29.1142C72.6984 28.1978 72.8374 27.2812 72.9731 26.364C73.1072 25.4597 73.2387 24.5546 73.3729 23.6496C73.5457 22.4887 73.7202 21.327 73.8953 20.1661C73.9204 20.0016 73.9325 19.9942 74.1142 19.9886C74.1757 19.9868 74.237 19.9886 74.2983 19.9886C76.5322 19.9886 78.7661 19.9877 80.9991 19.9902C81.121 19.9877 81.2454 19.9608 81.3779 20.0243Z" fill="white"/>
<path d="M127.452 19.9824C129.911 19.9824 132.339 19.9824 134.769 19.9833C134.815 19.9833 134.863 19.997 134.925 20.006C134.911 20.1372 134.9 20.2586 134.883 20.3783C134.749 21.2704 134.614 22.1625 134.481 23.0544C134.345 23.9587 134.211 24.8638 134.077 25.7681C133.941 26.6845 133.805 27.6018 133.669 28.5183C133.535 29.4226 133.401 30.3277 133.267 31.232C133.133 32.1363 133 33.0412 132.866 33.9455C132.729 34.8742 132.59 35.8038 132.452 36.7325C132.319 37.6244 132.187 38.5175 132.054 39.4094C131.917 40.326 131.781 41.2432 131.644 42.1596C131.508 43.0762 131.37 43.9926 131.234 44.9099C131.147 45.4964 131.061 46.0838 130.974 46.6704C130.946 46.8553 130.929 46.8701 130.74 46.8766C130.69 46.8782 130.641 46.8773 130.593 46.8773C128.334 46.8773 126.076 46.8773 123.818 46.8773C123.734 46.8773 123.649 46.8773 123.568 46.8773C123.483 46.7583 123.536 46.6468 123.551 46.5449C123.628 45.9943 123.717 45.4452 123.798 44.8953C123.91 44.1376 124.021 43.3792 124.132 42.6207C124.265 41.7035 124.397 40.7862 124.532 39.8689C124.669 38.9272 124.807 37.9855 124.945 37.0444C125.079 36.1271 125.215 35.2107 125.349 34.2935C125.483 33.3762 125.617 32.4587 125.751 31.5423C125.889 30.6006 126.027 29.6596 126.165 28.7178C126.297 27.8129 126.428 26.9077 126.56 26.0026C126.697 25.0609 126.836 24.1191 126.973 23.1783C127.082 22.432 127.189 21.6859 127.3 20.9405C127.344 20.6358 127.396 20.3311 127.452 19.9824Z" fill="white"/>
<path d="M131.647 15.9904C130.999 16.0084 130.377 15.8821 129.787 15.6181C128.489 15.0381 127.643 13.7713 127.751 12.2276C127.848 10.8255 128.487 9.70541 129.629 8.894C130.312 8.40848 131.079 8.13882 131.911 8.02477C132.684 7.91886 133.428 7.9873 134.152 8.26836C135.156 8.65775 135.879 9.33554 136.242 10.3718C136.365 10.7229 136.413 11.0879 136.436 11.4618C136.541 13.1937 135.409 14.8442 133.825 15.5334C133.065 15.8634 132.325 15.9929 131.647 15.9904Z" fill="white"/>
<path d="M78.0695 15.9911C77.6399 16.0139 77.1813 15.9357 76.7329 15.8021C75.0838 15.3117 74.1171 13.9162 74.2384 12.1899C74.3303 10.8824 74.9118 9.82665 75.9327 9.02585C76.6546 8.45965 77.4808 8.14846 78.3901 8.02464C79.2422 7.90814 80.0562 8.00346 80.8339 8.35864C81.9355 8.86129 82.6406 9.69875 82.8602 10.9134C83.0338 11.8763 82.8425 12.7838 82.3829 13.6343C81.9856 14.37 81.4066 14.928 80.6829 15.3369C79.8834 15.7875 79.025 15.9993 78.0695 15.9911Z" fill="white"/>
<path d="M37.4807 15.987C36.7222 16.0009 36.0262 15.8689 35.3848 15.5284C34.2082 14.9044 33.5831 13.9039 33.5614 12.5687C33.5323 10.7651 34.3827 9.44862 35.922 8.58917C36.9153 8.03439 37.9983 7.83806 39.1241 8.03847C40.4865 8.28123 41.4992 9.00628 42.0176 10.3325C42.3568 11.1993 42.3076 12.084 42.0031 12.9459C41.5105 14.3422 40.539 15.2547 39.1459 15.7182C38.5523 15.9161 37.9507 15.9895 37.4807 15.987Z" fill="white"/>
<path d="M225.842 0C225.779 0.167818 225.623 0.180852 225.481 0.214253C225.112 0.301421 224.738 0.375554 224.372 0.477386C222.741 0.929517 221.215 1.62442 219.775 2.51646C219.117 2.92542 218.477 3.36126 217.867 3.84433C217.004 4.5311 216.278 5.35144 215.637 6.25002C214.378 8.01781 213.121 9.78885 211.86 11.5558C208.757 15.9036 205.653 20.2507 202.548 24.5976C200.935 26.8567 199.318 29.1124 197.704 31.3715C197.468 31.7022 197.307 31.8146 197.909 31.9555C200.367 32.5322 202.822 33.1277 205.278 33.716C206.827 34.0874 208.377 34.4574 209.928 34.8296C210.161 34.8858 210.395 34.9452 210.602 35.0724C210.572 35.1579 210.516 35.1368 210.476 35.1391C210.39 35.144 210.303 35.1416 210.218 35.1416C206.166 35.1416 202.116 35.1449 198.065 35.1409C194.654 35.1375 191.241 35.1245 187.829 35.122C187.091 35.1213 186.357 35.0675 185.623 35.0195C184.878 34.9714 184.132 34.8965 183.391 34.8036C181.671 34.5869 179.99 34.2023 178.375 33.5489C177.147 33.0521 176.021 32.3792 175.005 31.5286C173.902 30.6048 172.995 29.5066 172.23 28.2831C171.612 27.2958 171.119 26.2489 170.677 25.1736C170.499 24.7394 170.311 24.31 170.12 23.8816C170.048 23.721 170.023 23.55 169.969 23.3626C170.29 23.1313 170.596 22.8721 171.007 22.7826C171.349 22.7076 171.69 22.7101 172.03 22.7703C172.655 22.882 173.215 23.1548 173.747 23.4977C174.524 23.9996 175.244 24.5756 175.935 25.1898C176.478 25.6722 177.03 26.1463 177.639 26.543C178.274 26.9552 178.953 27.2534 179.693 27.426C180.691 27.6607 181.662 27.5792 182.618 27.2166C183.524 26.8722 184.321 26.3483 185.057 25.7202C186.038 24.8828 186.865 23.9052 187.615 22.86C189.327 20.4739 191.028 18.0804 192.732 15.6902C194.88 12.676 197.026 9.66176 199.174 6.64755C199.882 5.65287 200.583 4.65166 201.305 3.66675C202.198 2.44803 203.328 1.52014 204.719 0.927073C205.423 0.627281 206.156 0.426063 206.909 0.306308C207.673 0.184926 208.437 0.0773919 209.211 0.0610989C209.285 0.0594697 209.36 0.0651721 209.416 0.000814651C214.891 0 220.367 0 225.842 0Z" fill="white"/>
<path d="M159.602 3.94873C159.769 3.94873 159.903 3.94873 160.038 3.94873C163.671 3.94628 167.304 3.94384 170.936 3.94058C171.354 3.94058 171.771 3.92999 172.188 3.94303C173.217 3.97561 174.207 4.18741 175.141 4.63303C176.375 5.22284 177.217 6.18413 177.727 7.45009C178.275 8.81301 178.815 10.18 179.36 11.5445C180.047 13.2643 180.733 14.984 181.422 16.7037C181.462 16.8072 181.503 16.9106 181.538 17.0157C181.611 17.2373 181.562 17.423 181.39 17.5868C180.728 18.219 179.964 18.4234 179.085 18.1555C178.838 18.0797 178.607 17.9664 178.377 17.8474C178.039 17.6724 177.699 17.5021 177.345 17.3595C176.476 17.0076 175.576 16.8569 174.645 16.9351C173.216 17.0548 172.085 17.7164 171.257 18.9C170.591 19.8498 170.238 20.9179 170.059 22.0568C170.004 22.4095 169.994 22.7688 169.898 23.1141C169.81 23.137 169.789 23.0679 169.768 23.0165C169.648 22.7322 169.532 22.4461 169.417 22.1594C168.53 19.9615 167.647 17.7628 166.757 15.5657C166.159 14.0895 165.553 12.6174 164.951 11.1421C164.55 10.1588 164.159 9.17227 163.751 8.19143C163.388 7.31975 162.921 6.50836 162.303 5.7931C161.687 5.07946 160.928 4.56786 160.052 4.23304C159.914 4.18009 159.774 4.13364 159.652 4.04974C159.635 4.03915 159.631 4.00983 159.602 3.94873Z" fill="white"/>
<path d="M174.331 19.9802C174.333 20.3598 174.011 20.6899 173.631 20.6979C173.247 20.706 172.893 20.3501 172.902 19.9656C172.911 19.5965 173.26 19.2552 173.625 19.2608C173.996 19.2675 174.33 19.6063 174.331 19.9802Z" fill="white"/>
</g>
<defs>
<clipPath id="clip0_287_27893">
<rect width="226" height="57" fill="white"/>
</clipPath>
</defs>
</svg>
