<svg width="1200" height="540" viewBox="0 0 1200 540" fill="none" xmlns="http://www.w3.org/2000/svg">
<mask id="mask0_202_19253" style="mask-type:alpha" maskUnits="userSpaceOnUse" x="0" y="0" width="1200" height="540">
<rect width="1200" height="540" rx="16" fill="url(#paint0_linear_202_19253)"/>
</mask>
<g mask="url(#mask0_202_19253)">
<path opacity="0.2" d="M1170.84 273.245C1170.84 273.25 1170.84 273.253 1170.83 273.249L1104.54 206.953C1101.53 203.952 1097.47 202.267 1093.22 202.267H1014.02C1005.18 202.267 998.016 195.103 998.016 186.267V107.061C998.016 102.817 996.33 98.7477 993.33 95.7472L937.314 39.7313C931.065 33.4829 931.065 23.3522 937.314 17.1039L993.33 -38.912C996.33 -41.9126 998.016 -45.9823 998.016 -50.2257V-128.008C998.016 -136.844 1005.18 -144.008 1014.02 -144.008H1091.8C1096.04 -144.008 1100.11 -145.694 1103.11 -148.694L1158.1 -203.686C1164.35 -209.935 1174.48 -209.935 1180.73 -203.686L1235.72 -148.694C1238.72 -145.694 1242.79 -144.008 1247.04 -144.008H1326.24C1335.08 -144.008 1342.24 -136.844 1342.24 -128.008V-48.8021C1342.24 -44.5586 1343.93 -40.4889 1346.93 -37.4884L1402.95 18.5275C1409.19 24.7759 1409.19 34.9066 1402.95 41.1549L1346.93 97.1709C1343.93 100.171 1342.24 104.241 1342.24 108.485V186.251C1342.24 195.087 1335.08 202.251 1326.24 202.251H1248.46C1244.22 202.251 1240.15 203.936 1237.15 206.937L1170.84 273.241C1170.84 273.242 1170.84 273.244 1170.84 273.245ZM1006.99 177.277C1006.99 186.113 1014.15 193.277 1022.99 193.277H1096.93C1101.18 193.277 1105.25 194.962 1108.25 197.963L1159.51 249.228C1165.76 255.476 1175.89 255.476 1182.14 249.228L1233.4 197.963C1236.4 194.962 1240.47 193.277 1244.72 193.277H1317.22C1326.06 193.277 1333.22 186.113 1333.22 177.277V104.773C1333.22 100.53 1334.91 96.4603 1337.91 93.4597L1390.2 41.1709C1396.44 34.9225 1396.44 24.7919 1390.2 18.5435L1337.91 -33.7452C1334.91 -36.7458 1333.22 -40.8154 1333.22 -45.0589V-119.002C1333.22 -127.838 1326.06 -135.002 1317.22 -135.002H1243.28C1239.03 -135.002 1234.96 -136.688 1231.96 -139.688L1180.7 -190.953C1174.45 -197.202 1164.32 -197.202 1158.07 -190.953L1106.81 -139.688C1103.81 -136.688 1099.74 -135.002 1095.49 -135.002H1022.99C1014.15 -135.002 1006.99 -127.838 1006.99 -119.002V-46.4986C1006.99 -42.2551 1005.3 -38.1855 1002.3 -35.1849L950.015 17.1039C943.766 23.3522 943.766 33.4829 950.015 39.7313L1002.3 92.02C1005.3 95.0206 1006.99 99.0902 1006.99 103.334V177.277Z" fill="#323B7E"/>
<g opacity="0.2">
<path d="M1168.37 124.95C1162.12 131.196 1151.99 131.195 1145.74 124.948L1129.43 108.633C1126.43 105.632 1122.36 103.946 1118.12 103.946H1094.36C1085.52 103.946 1078.36 96.7828 1078.36 87.9462V64.1951C1078.36 59.9503 1076.67 55.8794 1073.67 52.8786L1056.88 36.0903C1050.62 29.8423 1050.62 19.7095 1056.87 13.46L1073.68 -3.34236C1076.68 -6.34294 1078.36 -10.4126 1078.36 -14.6561V-37.7357C1078.36 -46.5723 1085.52 -53.7357 1094.36 -53.7357H1117.44C1121.68 -53.7357 1125.75 -55.4214 1128.75 -58.422L1145.07 -74.737C1151.32 -80.9843 1161.45 -80.9856 1167.69 -74.7399L1184.02 -58.4191C1187.02 -55.4203 1191.09 -53.7357 1195.33 -53.7357H1219.09C1227.93 -53.7357 1235.09 -46.5723 1235.09 -37.7357V-13.9799C1235.09 -9.7378 1236.77 -5.66935 1239.77 -2.669L1256.57 14.1367C1262.82 20.3855 1262.82 30.514 1256.57 36.7613L1239.78 53.5529C1236.78 56.5535 1235.09 60.6231 1235.09 64.8666V87.9462C1235.09 96.7828 1227.93 103.946 1219.09 103.946H1196.01C1191.77 103.946 1187.7 105.631 1184.7 108.63L1168.37 124.95Z" fill="white"/>
<mask id="mask1_202_19253" style="mask-type:luminance" maskUnits="userSpaceOnUse" x="1060" y="-72" width="193" height="194">
<path d="M1168.3 116.487C1162.05 122.732 1151.93 122.731 1145.68 116.484L1131.81 102.617C1128.81 99.6166 1124.74 97.9309 1120.5 97.9309H1100.28C1091.44 97.9309 1084.28 90.7675 1084.28 81.9309V61.7111C1084.28 57.4676 1082.59 53.3979 1079.59 50.3974L1065.29 36.0903C1059.04 29.842 1059.04 19.7113 1065.29 13.4629L1079.59 -0.844093C1082.59 -3.84467 1084.28 -7.91434 1084.28 -12.1578V-31.7696C1084.28 -40.6061 1091.44 -47.7696 1100.28 -47.7696H1119.89C1124.13 -47.7696 1128.2 -49.4553 1131.2 -52.4558L1145.07 -66.3191C1151.32 -72.5675 1161.45 -72.5675 1167.69 -66.3191L1181.56 -52.4558C1184.56 -49.4553 1188.63 -47.7696 1192.87 -47.7696H1213.09C1221.93 -47.7696 1229.09 -40.6061 1229.09 -31.7696V-11.5332C1229.09 -7.28979 1230.78 -3.22013 1233.78 -0.219551L1248.08 14.0875C1254.33 20.3359 1254.33 30.4665 1248.08 36.7149L1233.78 51.0219C1230.78 54.0225 1229.09 58.0921 1229.09 62.3356V81.9309C1229.09 90.7675 1221.93 97.9309 1213.09 97.9309H1193.49C1189.25 97.9309 1185.18 99.6154 1182.18 102.614L1168.3 116.487Z" fill="white"/>
</mask>
<g mask="url(#mask1_202_19253)">
<path d="M1168.3 116.487C1162.05 122.732 1151.93 122.731 1145.68 116.484L1131.81 102.617C1128.81 99.6166 1124.74 97.9309 1120.5 97.9309H1100.28C1091.44 97.9309 1084.28 90.7675 1084.28 81.9309V61.7111C1084.28 57.4676 1082.59 53.3979 1079.59 50.3974L1065.28 36.0903C1059.04 29.842 1059.04 19.7113 1065.28 13.4629L1079.59 -0.844093C1082.59 -3.84467 1084.28 -7.91434 1084.28 -12.1578V-31.7696C1084.28 -40.6061 1091.44 -47.7696 1100.28 -47.7696H1119.89C1124.13 -47.7696 1128.2 -49.4553 1131.2 -52.4558L1145.07 -66.3191C1151.32 -72.5675 1161.45 -72.5675 1167.69 -66.3191L1181.56 -52.4558C1184.56 -49.4553 1188.63 -47.7696 1192.87 -47.7696H1213.09C1221.93 -47.7696 1229.09 -40.6061 1229.09 -31.7696V-11.5332C1229.09 -7.28979 1230.78 -3.22013 1233.78 -0.219551L1248.08 14.0875C1254.33 20.3359 1254.33 30.4665 1248.08 36.7149L1233.78 51.0219C1230.78 54.0225 1229.09 58.0921 1229.09 62.3356V81.9309C1229.09 90.7675 1221.93 97.9309 1213.09 97.9309H1193.49C1189.25 97.9309 1185.18 99.6154 1182.18 102.614L1168.3 116.487Z" fill="#4A61AB"/>
<path d="M1057.75 10.1299C1058.09 13.192 1054.62 15.1913 1052.14 13.3722C1050.89 12.4602 1049.2 12.4602 1047.95 13.3722C1045.46 15.1913 1042 13.192 1042.33 10.1299C1042.5 8.5942 1041.65 7.12714 1040.24 6.50398C1037.42 5.26109 1037.42 1.26089 1040.24 0.0180035C1041.65 -0.605163 1042.5 -2.07222 1042.33 -3.60788C1042 -6.67003 1045.46 -8.66931 1047.95 -6.85025C1049.2 -5.93819 1050.89 -5.93819 1052.14 -6.85025C1054.62 -8.66931 1058.09 -6.67003 1057.75 -3.60788C1057.59 -2.07222 1058.43 -0.605163 1059.85 0.0180035C1062.66 1.26089 1062.66 5.26109 1059.85 6.50398C1058.43 7.12714 1057.59 8.5942 1057.75 10.1299ZM1048.31 11.6333C1049.34 10.8764 1050.75 10.8764 1051.78 11.6333C1053.84 13.1414 1056.71 11.4847 1056.44 8.94663C1056.3 7.67551 1057 6.46058 1058.17 5.94483C1060.5 4.91629 1060.5 1.6057 1058.17 0.57716C1057 0.061409 1056.3 -1.15352 1056.44 -2.42464C1056.71 -4.96276 1053.84 -6.61946 1051.78 -5.1113C1050.75 -4.35437 1049.34 -4.35437 1048.31 -5.1113C1046.25 -6.61946 1043.37 -4.96276 1043.65 -2.42464C1043.79 -1.15352 1043.08 0.061409 1041.91 0.57716C1039.58 1.6057 1039.58 4.91629 1041.91 5.94483C1043.08 6.46058 1043.79 7.67551 1043.65 8.94663C1043.37 11.4847 1046.25 13.1414 1048.31 11.6333Z" fill="white"/>
<path d="M1065.59 14.9954C1064.26 14.9954 1063.19 13.9107 1063.19 12.5959C1063.19 11.281 1064.28 10.1963 1065.59 10.1963C1066.91 10.1963 1067.99 11.281 1067.99 12.5959C1067.99 13.9107 1066.91 14.9954 1065.59 14.9954ZM1065.59 11.3632C1064.92 11.3632 1064.37 11.9056 1064.37 12.5794C1064.37 13.2533 1064.92 13.7957 1065.59 13.7957C1066.26 13.7957 1066.81 13.2533 1066.81 12.5794C1066.81 11.9056 1066.26 11.3632 1065.59 11.3632Z" fill="white"/>
<path d="M1092.88 10.1299C1093.21 13.192 1089.74 15.1913 1087.26 13.3722C1086.01 12.4602 1084.32 12.4602 1083.07 13.3722C1080.59 15.1913 1077.12 13.192 1077.46 10.1299C1077.62 8.5942 1076.78 7.12714 1075.36 6.50398C1072.54 5.26109 1072.54 1.26089 1075.36 0.0180035C1076.78 -0.605163 1077.62 -2.07222 1077.46 -3.60788C1077.12 -6.67003 1080.59 -8.66931 1083.07 -6.85025C1084.32 -5.93819 1086.01 -5.93819 1087.26 -6.85025C1089.74 -8.66931 1093.21 -6.67003 1092.88 -3.60788C1092.71 -2.07222 1093.56 -0.605163 1094.97 0.0180035C1097.79 1.26089 1097.79 5.26109 1094.97 6.50398C1093.56 7.12714 1092.71 8.5942 1092.88 10.1299ZM1083.43 11.6333C1084.46 10.8764 1085.87 10.8764 1086.9 11.6333C1088.96 13.1414 1091.84 11.4847 1091.56 8.94663C1091.42 7.67551 1092.12 6.46058 1093.29 5.94483C1095.63 4.91629 1095.63 1.6057 1093.29 0.57716C1092.12 0.061409 1091.42 -1.15352 1091.56 -2.42464C1091.84 -4.96276 1088.96 -6.61946 1086.9 -5.1113C1085.87 -4.35437 1084.46 -4.35437 1083.43 -5.1113C1081.37 -6.61946 1078.49 -4.96275 1078.77 -2.42464C1078.91 -1.15352 1078.21 0.061409 1077.04 0.57716C1074.7 1.6057 1074.7 4.91629 1077.04 5.94483C1078.21 6.46058 1078.91 7.67551 1078.77 8.94663C1078.49 11.4847 1081.37 13.1414 1083.43 11.6333Z" fill="white"/>
<path d="M1100.71 14.9954C1099.38 14.9954 1098.31 13.9107 1098.31 12.5959C1098.31 11.281 1099.4 10.1963 1100.71 10.1963C1102.03 10.1963 1103.11 11.281 1103.11 12.5959C1103.11 13.9107 1102.03 14.9954 1100.71 14.9954ZM1100.71 11.3632C1100.04 11.3632 1099.5 11.9056 1099.5 12.5794C1099.5 13.2533 1100.04 13.7957 1100.71 13.7957C1101.39 13.7957 1101.93 13.2533 1101.93 12.5794C1101.93 11.9056 1101.39 11.3632 1100.71 11.3632Z" fill="white"/>
<path d="M1127.98 10.1299C1128.31 13.192 1124.85 15.1913 1122.36 13.3722C1121.12 12.4602 1119.42 12.4602 1118.18 13.3722C1115.69 15.1913 1112.23 13.192 1112.56 10.1299C1112.73 8.5942 1111.88 7.12714 1110.47 6.50398C1107.65 5.26109 1107.65 1.26089 1110.47 0.0180035C1111.88 -0.605162 1112.73 -2.07222 1112.56 -3.60788C1112.23 -6.67003 1115.69 -8.66931 1118.18 -6.85025C1119.42 -5.93819 1121.12 -5.93819 1122.36 -6.85025C1124.85 -8.66931 1128.31 -6.67004 1127.98 -3.60788C1127.81 -2.07222 1128.66 -0.605163 1130.07 0.0180044C1132.89 1.26089 1132.89 5.26109 1130.07 6.50398C1128.66 7.12714 1127.81 8.5942 1127.98 10.1299ZM1118.53 11.6333C1119.57 10.8764 1120.98 10.8764 1122.01 11.6333C1124.07 13.1414 1126.94 11.4847 1126.67 8.94663C1126.53 7.67551 1127.23 6.46058 1128.4 5.94483C1130.73 4.91629 1130.73 1.6057 1128.4 0.57716C1127.23 0.06141 1126.53 -1.15352 1126.67 -2.42464C1126.94 -4.96276 1124.07 -6.61946 1122.01 -5.1113C1120.98 -4.35437 1119.57 -4.35437 1118.53 -5.1113C1116.47 -6.61946 1113.6 -4.96275 1113.88 -2.42464C1114.01 -1.15352 1113.31 0.06141 1112.14 0.57716C1109.81 1.6057 1109.81 4.91629 1112.14 5.94483C1113.31 6.46058 1114.01 7.67551 1113.88 8.94663C1113.6 11.4847 1116.47 13.1414 1118.53 11.6333Z" fill="white"/>
<path d="M1135.82 14.9954C1134.49 14.9954 1133.42 13.9107 1133.42 12.5959C1133.42 11.281 1134.5 10.1963 1135.82 10.1963C1137.13 10.1963 1138.22 11.281 1138.22 12.5959C1138.22 13.9107 1137.13 14.9954 1135.82 14.9954ZM1135.82 11.3632C1135.15 11.3632 1134.6 11.9056 1134.6 12.5794C1134.6 13.2533 1135.15 13.7957 1135.82 13.7957C1136.49 13.7957 1137.04 13.2533 1137.04 12.5794C1137.04 11.9056 1136.49 11.3632 1135.82 11.3632Z" fill="white"/>
<path d="M1163.09 10.1299C1163.42 13.192 1159.96 15.1913 1157.47 13.3722C1156.23 12.4602 1154.53 12.4602 1153.29 13.3722C1150.8 15.1913 1147.34 13.192 1147.67 10.1299C1147.84 8.5942 1146.99 7.12714 1145.58 6.50398C1142.76 5.26109 1142.76 1.26089 1145.58 0.0180035C1146.99 -0.605162 1147.84 -2.07222 1147.67 -3.60788C1147.34 -6.67003 1150.8 -8.66931 1153.29 -6.85025C1154.53 -5.93819 1156.23 -5.93819 1157.47 -6.85025C1159.96 -8.66931 1163.42 -6.67004 1163.09 -3.60788C1162.92 -2.07222 1163.77 -0.605163 1165.18 0.0180044C1168 1.26089 1168 5.26109 1165.18 6.50398C1163.77 7.12714 1162.92 8.5942 1163.09 10.1299ZM1153.64 11.6333C1154.67 10.8764 1156.08 10.8764 1157.12 11.6333C1159.18 13.1414 1162.05 11.4847 1161.77 8.94663C1161.64 7.67551 1162.34 6.46058 1163.51 5.94483C1165.84 4.91629 1165.84 1.6057 1163.51 0.57716C1162.34 0.06141 1161.64 -1.15352 1161.77 -2.42464C1162.05 -4.96276 1159.18 -6.61946 1157.12 -5.1113C1156.08 -4.35437 1154.67 -4.35437 1153.64 -5.1113C1151.58 -6.61946 1148.71 -4.96275 1148.98 -2.42464C1149.12 -1.15352 1148.42 0.06141 1147.25 0.57716C1144.92 1.6057 1144.92 4.91629 1147.25 5.94483C1148.42 6.46058 1149.12 7.67551 1148.98 8.94663C1148.71 11.4847 1151.58 13.1414 1153.64 11.6333Z" fill="white"/>
<path d="M1170.93 14.9954C1169.6 14.9954 1168.53 13.9107 1168.53 12.5959C1168.53 11.281 1169.61 10.1963 1170.93 10.1963C1172.24 10.1963 1173.33 11.281 1173.33 12.5959C1173.33 13.9107 1172.24 14.9954 1170.93 14.9954ZM1170.93 11.3632C1170.25 11.3632 1169.71 11.9056 1169.71 12.5794C1169.71 13.2533 1170.25 13.7957 1170.93 13.7957C1171.6 13.7957 1172.14 13.2533 1172.14 12.5794C1172.14 11.9056 1171.6 11.3632 1170.93 11.3632Z" fill="white"/>
<path d="M1198.21 10.1299C1198.54 13.192 1195.08 15.1913 1192.59 13.3722C1191.35 12.4602 1189.65 12.4602 1188.41 13.3722C1185.92 15.1913 1182.46 13.192 1182.79 10.1299C1182.96 8.5942 1182.11 7.12714 1180.7 6.50398C1177.88 5.26109 1177.88 1.26089 1180.7 0.0180044C1182.11 -0.605163 1182.96 -2.07222 1182.79 -3.60788C1182.46 -6.67004 1185.92 -8.66931 1188.41 -6.85025C1189.65 -5.93819 1191.35 -5.93819 1192.59 -6.85025C1195.08 -8.66931 1198.54 -6.67003 1198.21 -3.60788C1198.04 -2.07222 1198.89 -0.605162 1200.3 0.0180044C1203.12 1.26089 1203.12 5.26109 1200.3 6.50398C1198.89 7.12714 1198.04 8.5942 1198.21 10.1299ZM1188.76 11.6333C1189.8 10.8764 1191.2 10.8764 1192.24 11.6333C1194.3 13.1414 1197.17 11.4847 1196.9 8.94663C1196.76 7.67551 1197.46 6.46058 1198.63 5.94483C1200.96 4.91629 1200.96 1.6057 1198.63 0.577159C1197.46 0.061409 1196.76 -1.15352 1196.9 -2.42464C1197.17 -4.96275 1194.3 -6.61946 1192.24 -5.1113C1191.2 -4.35437 1189.8 -4.35437 1188.76 -5.1113C1186.7 -6.61946 1183.83 -4.96276 1184.1 -2.42464C1184.24 -1.15352 1183.54 0.061409 1182.37 0.57716C1180.04 1.6057 1180.04 4.91629 1182.37 5.94483C1183.54 6.46058 1184.24 7.67551 1184.1 8.94663C1183.83 11.4847 1186.7 13.1414 1188.76 11.6333Z" fill="white"/>
<path d="M1075.32 39.8457C1075.66 42.9078 1072.19 44.9071 1069.71 43.088C1068.46 42.176 1066.77 42.176 1065.52 43.088C1063.03 44.9071 1059.57 42.9078 1059.9 39.8457C1060.07 38.31 1059.22 36.843 1057.81 36.2198C1054.99 34.9769 1054.99 30.9767 1057.81 29.7338C1059.22 29.1107 1060.07 27.6436 1059.9 26.1079C1059.57 23.0458 1063.03 21.0465 1065.52 22.8656C1066.77 23.7776 1068.46 23.7776 1069.71 22.8656C1072.19 21.0465 1075.66 23.0458 1075.32 26.1079C1075.15 27.6436 1076 29.1107 1077.42 29.7338C1080.23 30.9767 1080.23 34.9769 1077.42 36.2198C1076 36.843 1075.15 38.31 1075.32 39.8457ZM1065.87 41.3655C1066.91 40.6086 1068.32 40.6086 1069.35 41.3655C1071.41 42.8737 1074.28 41.217 1074.01 38.6789C1073.87 37.4078 1074.57 36.1928 1075.74 35.6771C1078.07 34.6485 1078.07 31.338 1075.74 30.3094C1074.57 29.7937 1073.87 28.5787 1074.01 27.3076C1074.28 24.7695 1071.41 23.1128 1069.35 24.6209C1068.32 25.3779 1066.91 25.3779 1065.87 24.6209C1063.81 23.1128 1060.94 24.7695 1061.22 27.3076C1061.35 28.5787 1060.65 29.7937 1059.48 30.3094C1057.15 31.338 1057.15 34.6485 1059.48 35.6771C1060.65 36.1928 1061.35 37.4078 1061.22 38.6789C1060.94 41.217 1063.81 42.8737 1065.87 41.3655Z" fill="white"/>
<path d="M1083.14 26.057C1081.81 26.057 1080.74 24.9722 1080.74 23.6574C1080.74 22.3426 1081.83 21.2578 1083.14 21.2578C1084.46 21.2578 1085.54 22.3426 1085.54 23.6574C1085.54 24.9722 1084.46 26.057 1083.14 26.057ZM1083.14 22.4412C1082.47 22.4412 1081.93 22.9835 1081.93 23.6574C1081.93 24.3313 1082.47 24.8736 1083.14 24.8736C1083.82 24.8736 1084.36 24.3313 1084.36 23.6574C1084.36 22.9835 1083.82 22.4412 1083.14 22.4412Z" fill="white"/>
<path d="M1083.14 44.7103C1081.81 44.7103 1080.74 43.6255 1080.74 42.3107C1080.74 40.9959 1081.83 39.9111 1083.14 39.9111C1084.46 39.9111 1085.54 40.9959 1085.54 42.3107C1085.54 43.6255 1084.46 44.7103 1083.14 44.7103ZM1083.14 41.0945C1082.47 41.0945 1081.93 41.6369 1081.93 42.3107C1081.93 42.9846 1082.47 43.5269 1083.14 43.5269C1083.82 43.5269 1084.36 42.9846 1084.36 42.3107C1084.36 41.6369 1083.82 41.0945 1083.14 41.0945Z" fill="white"/>
<path d="M1110.43 39.8457C1110.76 42.9078 1107.3 44.9071 1104.81 43.088C1103.57 42.176 1101.87 42.176 1100.63 43.088C1098.14 44.9071 1094.68 42.9078 1095.01 39.8457C1095.18 38.31 1094.33 36.843 1092.92 36.2198C1090.1 34.9769 1090.1 30.9767 1092.92 29.7338C1094.33 29.1107 1095.18 27.6436 1095.01 26.1079C1094.68 23.0458 1098.14 21.0465 1100.63 22.8656C1101.87 23.7776 1103.57 23.7776 1104.81 22.8656C1107.3 21.0465 1110.76 23.0458 1110.43 26.1079C1110.26 27.6436 1111.11 29.1107 1112.52 29.7338C1115.34 30.9767 1115.34 34.9769 1112.52 36.2198C1111.11 36.843 1110.26 38.31 1110.43 39.8457ZM1100.98 41.3655C1102.02 40.6086 1103.42 40.6086 1104.46 41.3655C1106.52 42.8737 1109.39 41.217 1109.11 38.6789C1108.98 37.4078 1109.68 36.1928 1110.85 35.6771C1113.18 34.6485 1113.18 31.338 1110.85 30.3094C1109.68 29.7937 1108.98 28.5787 1109.11 27.3076C1109.39 24.7695 1106.52 23.1128 1104.46 24.6209C1103.42 25.3779 1102.02 25.3779 1100.98 24.6209C1098.92 23.1128 1096.05 24.7695 1096.32 27.3076C1096.46 28.5787 1095.76 29.7937 1094.59 30.3094C1092.26 31.338 1092.26 34.6485 1094.59 35.6771C1095.76 36.1928 1096.46 37.4078 1096.32 38.6789C1096.05 41.217 1098.92 42.8737 1100.98 41.3655Z" fill="white"/>
<path d="M1118.27 26.057C1116.94 26.057 1115.87 24.9722 1115.87 23.6574C1115.87 22.3426 1116.95 21.2578 1118.27 21.2578C1119.58 21.2578 1120.67 22.3426 1120.67 23.6574C1120.67 24.9722 1119.58 26.057 1118.27 26.057ZM1118.27 22.4412C1117.59 22.4412 1117.05 22.9835 1117.05 23.6574C1117.05 24.3313 1117.59 24.8736 1118.27 24.8736C1118.94 24.8736 1119.48 24.3313 1119.48 23.6574C1119.48 22.9835 1118.94 22.4412 1118.27 22.4412Z" fill="white"/>
<path d="M1118.27 44.7103C1116.94 44.7103 1115.87 43.6255 1115.87 42.3107C1115.87 40.9959 1116.95 39.9111 1118.27 39.9111C1119.58 39.9111 1120.67 40.9959 1120.67 42.3107C1120.67 43.6255 1119.58 44.7103 1118.27 44.7103ZM1118.27 41.0945C1117.59 41.0945 1117.05 41.6369 1117.05 42.3107C1117.05 42.9846 1117.59 43.5269 1118.27 43.5269C1118.94 43.5269 1119.48 42.9846 1119.48 42.3107C1119.48 41.6369 1118.94 41.0945 1118.27 41.0945Z" fill="white"/>
<path d="M1145.53 39.8457C1145.87 42.9078 1142.4 44.9071 1139.92 43.088C1138.67 42.176 1136.98 42.176 1135.73 43.088C1133.25 44.9071 1129.78 42.9078 1130.12 39.8457C1130.28 38.31 1129.44 36.843 1128.02 36.2198C1125.2 34.9769 1125.2 30.9767 1128.02 29.7338C1129.44 29.1107 1130.28 27.6436 1130.12 26.1079C1129.78 23.0458 1133.25 21.0465 1135.73 22.8656C1136.98 23.7776 1138.67 23.7776 1139.92 22.8656C1142.4 21.0465 1145.87 23.0458 1145.53 26.1079C1145.37 27.6436 1146.21 29.1107 1147.63 29.7338C1150.45 30.9767 1150.45 34.9769 1147.63 36.2198C1146.21 36.843 1145.37 38.31 1145.53 39.8457ZM1136.09 41.3655C1137.12 40.6086 1138.53 40.6086 1139.56 41.3655C1141.62 42.8737 1144.5 41.217 1144.22 38.6789C1144.08 37.4078 1144.78 36.1928 1145.95 35.6771C1148.29 34.6485 1148.29 31.338 1145.95 30.3094C1144.78 29.7937 1144.08 28.5787 1144.22 27.3076C1144.5 24.7695 1141.62 23.1128 1139.56 24.6209C1138.53 25.3779 1137.12 25.3779 1136.09 24.6209C1134.03 23.1128 1131.15 24.7695 1131.43 27.3076C1131.57 28.5787 1130.87 29.7937 1129.7 30.3094C1127.36 31.338 1127.36 34.6485 1129.7 35.6771C1130.87 36.1928 1131.57 37.4078 1131.43 38.6789C1131.15 41.217 1134.03 42.8737 1136.09 41.3655Z" fill="white"/>
<path d="M1153.37 26.057C1152.04 26.057 1150.97 24.9722 1150.97 23.6574C1150.97 22.3426 1152.06 21.2578 1153.37 21.2578C1154.69 21.2578 1155.77 22.3426 1155.77 23.6574C1155.77 24.9722 1154.69 26.057 1153.37 26.057ZM1153.37 22.4412C1152.7 22.4412 1152.16 22.9835 1152.16 23.6574C1152.16 24.3313 1152.7 24.8736 1153.37 24.8736C1154.05 24.8736 1154.59 24.3313 1154.59 23.6574C1154.59 22.9835 1154.05 22.4412 1153.37 22.4412Z" fill="white"/>
<path d="M1153.37 44.7103C1152.04 44.7103 1150.97 43.6255 1150.97 42.3107C1150.97 40.9959 1152.06 39.9111 1153.37 39.9111C1154.69 39.9111 1155.77 40.9959 1155.77 42.3107C1155.77 43.6255 1154.69 44.7103 1153.37 44.7103ZM1153.37 41.0945C1152.7 41.0945 1152.16 41.6369 1152.16 42.3107C1152.16 42.9846 1152.7 43.5269 1153.37 43.5269C1154.05 43.5269 1154.59 42.9846 1154.59 42.3107C1154.59 41.6369 1154.05 41.0945 1153.37 41.0945Z" fill="white"/>
<path d="M1180.64 39.8457C1180.97 42.9078 1177.51 44.9071 1175.02 43.088C1173.78 42.176 1172.08 42.176 1170.84 43.088C1168.35 44.9071 1164.89 42.9078 1165.22 39.8457C1165.39 38.31 1164.54 36.843 1163.13 36.2198C1160.31 34.9769 1160.31 30.9767 1163.13 29.7338C1164.54 29.1107 1165.39 27.6436 1165.22 26.1079C1164.89 23.0458 1168.35 21.0465 1170.84 22.8656C1172.08 23.7776 1173.78 23.7776 1175.02 22.8656C1177.51 21.0465 1180.97 23.0458 1180.64 26.1079C1180.47 27.6436 1181.32 29.1107 1182.73 29.7338C1185.55 30.9767 1185.55 34.9769 1182.73 36.2198C1181.32 36.843 1180.47 38.31 1180.64 39.8457ZM1171.19 41.3655C1172.23 40.6086 1173.63 40.6086 1174.67 41.3655C1176.73 42.8737 1179.6 41.217 1179.33 38.6789C1179.19 37.4078 1179.89 36.1928 1181.06 35.6771C1183.39 34.6485 1183.39 31.338 1181.06 30.3094C1179.89 29.7937 1179.19 28.5787 1179.33 27.3076C1179.6 24.7695 1176.73 23.1128 1174.67 24.6209C1173.63 25.3779 1172.23 25.3779 1171.19 24.6209C1169.13 23.1128 1166.26 24.7695 1166.54 27.3076C1166.67 28.5787 1165.97 29.7937 1164.8 30.3094C1162.47 31.338 1162.47 34.6485 1164.8 35.6771C1165.97 36.1928 1166.67 37.4078 1166.54 38.6789C1166.26 41.217 1169.13 42.8737 1171.19 41.3655Z" fill="white"/>
<path d="M1188.48 26.057C1187.15 26.057 1186.08 24.9722 1186.08 23.6574C1186.08 22.3426 1187.16 21.2578 1188.48 21.2578C1189.79 21.2578 1190.88 22.3426 1190.88 23.6574C1190.88 24.9722 1189.79 26.057 1188.48 26.057ZM1188.48 22.4412C1187.81 22.4412 1187.26 22.9835 1187.26 23.6574C1187.26 24.3313 1187.81 24.8736 1188.48 24.8736C1189.15 24.8736 1189.7 24.3313 1189.7 23.6574C1189.7 22.9835 1189.15 22.4412 1188.48 22.4412Z" fill="white"/>
<path d="M1188.48 44.7103C1187.15 44.7103 1186.08 43.6255 1186.08 42.3107C1186.08 40.9959 1187.16 39.9111 1188.48 39.9111C1189.79 39.9111 1190.88 40.9959 1190.88 42.3107C1190.88 43.6255 1189.79 44.7103 1188.48 44.7103ZM1188.48 41.0945C1187.81 41.0945 1187.26 41.6369 1187.26 42.3107C1187.26 42.9846 1187.81 43.5269 1188.48 43.5269C1189.15 43.5269 1189.7 42.9846 1189.7 42.3107C1189.7 41.6369 1189.15 41.0945 1188.48 41.0945Z" fill="white"/>
<path d="M1215.76 39.8457C1216.1 42.9078 1212.63 44.9071 1210.15 43.088C1208.9 42.176 1207.21 42.176 1205.96 43.088C1203.47 44.9071 1200.01 42.9078 1200.34 39.8457C1200.51 38.31 1199.66 36.843 1198.25 36.2198C1195.43 34.9769 1195.43 30.9767 1198.25 29.7338C1199.66 29.1107 1200.51 27.6436 1200.34 26.1079C1200.01 23.0458 1203.47 21.0465 1205.96 22.8656C1207.21 23.7776 1208.9 23.7776 1210.15 22.8656C1212.63 21.0465 1216.1 23.0458 1215.76 26.1079C1215.6 27.6436 1216.44 29.1107 1217.86 29.7338C1220.68 30.9767 1220.68 34.9769 1217.86 36.2198C1216.44 36.843 1215.6 38.31 1215.76 39.8457ZM1206.32 41.3655C1207.35 40.6086 1208.76 40.6086 1209.79 41.3655C1211.85 42.8737 1214.73 41.217 1214.45 38.6789C1214.31 37.4078 1215.01 36.1928 1216.18 35.6771C1218.52 34.6485 1218.52 31.338 1216.18 30.3094C1215.01 29.7937 1214.31 28.5787 1214.45 27.3076C1214.73 24.7695 1211.85 23.1128 1209.79 24.6209C1208.76 25.3779 1207.35 25.3779 1206.32 24.6209C1204.26 23.1128 1201.38 24.7695 1201.66 27.3076C1201.8 28.5787 1201.1 29.7937 1199.93 30.3094C1197.59 31.338 1197.59 34.6485 1199.93 35.6771C1201.1 36.1928 1201.8 37.4078 1201.66 38.6789C1201.38 41.217 1204.26 42.8737 1206.32 41.3655Z" fill="white"/>
<path d="M1092.88 69.5771C1093.21 72.6393 1089.74 74.6386 1087.26 72.8195C1086.01 71.9074 1084.32 71.9074 1083.07 72.8195C1080.59 74.6386 1077.12 72.6393 1077.46 69.5771C1077.62 68.0415 1076.78 66.5744 1075.36 65.9512C1072.54 64.7084 1072.54 60.7082 1075.36 59.4653C1076.78 58.8421 1077.62 57.375 1077.46 55.8394C1077.12 52.7772 1080.59 50.778 1083.07 52.597C1084.32 53.5091 1086.01 53.5091 1087.26 52.597C1089.74 50.778 1093.21 52.7772 1092.88 55.8394C1092.71 57.375 1093.56 58.8421 1094.97 59.4653C1097.79 60.7082 1097.79 64.7084 1094.97 65.9512C1093.56 66.5744 1092.71 68.0415 1092.88 69.5771ZM1083.43 71.0805C1084.46 70.3236 1085.87 70.3236 1086.9 71.0805C1088.96 72.5887 1091.84 70.932 1091.56 68.3939C1091.42 67.1228 1092.12 65.9078 1093.29 65.3921C1095.63 64.3636 1095.63 61.053 1093.29 60.0244C1092.12 59.5087 1091.42 58.2937 1091.56 57.0226C1091.84 54.4845 1088.96 52.8278 1086.9 54.336C1085.87 55.0929 1084.46 55.0929 1083.43 54.336C1081.37 52.8278 1078.49 54.4845 1078.77 57.0226C1078.91 58.2937 1078.21 59.5087 1077.04 60.0244C1074.7 61.053 1074.7 64.3636 1077.04 65.3921C1078.21 65.9078 1078.91 67.1228 1078.77 68.3939C1078.49 70.932 1081.37 72.5887 1083.43 71.0805Z" fill="white"/>
<path d="M1100.71 55.7884C1099.38 55.7884 1098.31 54.7037 1098.31 53.3888C1098.31 52.074 1099.4 50.9893 1100.71 50.9893C1102.03 50.9893 1103.11 52.074 1103.11 53.3888C1103.11 54.7037 1102.03 55.7884 1100.71 55.7884ZM1100.71 52.1562C1100.04 52.1562 1099.5 52.6985 1099.5 53.3724C1099.5 54.0463 1100.04 54.5886 1100.71 54.5886C1101.39 54.5886 1101.93 54.0463 1101.93 53.3724C1101.93 52.6985 1101.39 52.1562 1100.71 52.1562Z" fill="white"/>
<path d="M1100.71 74.4261C1099.38 74.4261 1098.31 73.3414 1098.31 72.0265C1098.31 70.7117 1099.4 69.627 1100.71 69.627C1102.03 69.627 1103.11 70.7117 1103.11 72.0265C1103.11 73.3414 1102.03 74.4261 1100.71 74.4261ZM1100.71 70.8103C1100.04 70.8103 1099.5 71.3527 1099.5 72.0265C1099.5 72.7004 1100.04 73.2428 1100.71 73.2428C1101.39 73.2428 1101.93 72.7004 1101.93 72.0265C1101.93 71.3527 1101.39 70.8103 1100.71 70.8103Z" fill="white"/>
<path d="M1127.98 69.5771C1128.31 72.6393 1124.85 74.6386 1122.36 72.8195C1121.12 71.9074 1119.42 71.9074 1118.18 72.8195C1115.69 74.6386 1112.23 72.6393 1112.56 69.5771C1112.73 68.0415 1111.88 66.5744 1110.47 65.9512C1107.65 64.7084 1107.65 60.7082 1110.47 59.4653C1111.88 58.8421 1112.73 57.375 1112.56 55.8394C1112.23 52.7772 1115.69 50.778 1118.18 52.597C1119.42 53.5091 1121.12 53.5091 1122.36 52.597C1124.85 50.778 1128.31 52.7772 1127.98 55.8394C1127.81 57.375 1128.66 58.8421 1130.07 59.4653C1132.89 60.7082 1132.89 64.7084 1130.07 65.9512C1128.66 66.5744 1127.81 68.0415 1127.98 69.5771ZM1118.53 71.0805C1119.57 70.3236 1120.98 70.3236 1122.01 71.0805C1124.07 72.5887 1126.94 70.932 1126.67 68.3939C1126.53 67.1228 1127.23 65.9078 1128.4 65.3921C1130.73 64.3636 1130.73 61.053 1128.4 60.0244C1127.23 59.5087 1126.53 58.2937 1126.67 57.0226C1126.94 54.4845 1124.07 52.8278 1122.01 54.336C1120.98 55.0929 1119.57 55.0929 1118.53 54.336C1116.47 52.8278 1113.6 54.4845 1113.88 57.0226C1114.01 58.2937 1113.31 59.5087 1112.14 60.0244C1109.81 61.053 1109.81 64.3636 1112.14 65.3921C1113.31 65.9078 1114.01 67.1228 1113.88 68.3939C1113.6 70.932 1116.47 72.5887 1118.53 71.0805Z" fill="white"/>
<path d="M1135.82 55.7884C1134.49 55.7884 1133.42 54.7037 1133.42 53.3888C1133.42 52.074 1134.5 50.9893 1135.82 50.9893C1137.13 50.9893 1138.22 52.074 1138.22 53.3888C1138.22 54.7037 1137.13 55.7884 1135.82 55.7884ZM1135.82 52.1562C1135.15 52.1562 1134.6 52.6985 1134.6 53.3724C1134.6 54.0463 1135.15 54.5886 1135.82 54.5886C1136.49 54.5886 1137.04 54.0463 1137.04 53.3724C1137.04 52.6985 1136.49 52.1562 1135.82 52.1562Z" fill="white"/>
<path d="M1135.82 74.4261C1134.49 74.4261 1133.42 73.3414 1133.42 72.0265C1133.42 70.7117 1134.5 69.627 1135.82 69.627C1137.13 69.627 1138.22 70.7117 1138.22 72.0265C1138.22 73.3414 1137.13 74.4261 1135.82 74.4261ZM1135.82 70.8103C1135.15 70.8103 1134.6 71.3527 1134.6 72.0265C1134.6 72.7004 1135.15 73.2428 1135.82 73.2428C1136.49 73.2428 1137.04 72.7004 1137.04 72.0265C1137.04 71.3527 1136.49 70.8103 1135.82 70.8103Z" fill="white"/>
<path d="M1163.09 69.5771C1163.42 72.6393 1159.96 74.6386 1157.47 72.8195C1156.23 71.9074 1154.53 71.9074 1153.29 72.8195C1150.8 74.6386 1147.34 72.6393 1147.67 69.5771C1147.84 68.0415 1146.99 66.5744 1145.58 65.9512C1142.76 64.7084 1142.76 60.7082 1145.58 59.4653C1146.99 58.8421 1147.84 57.375 1147.67 55.8394C1147.34 52.7772 1150.8 50.778 1153.29 52.597C1154.53 53.5091 1156.23 53.5091 1157.47 52.597C1159.96 50.778 1163.42 52.7772 1163.09 55.8394C1162.92 57.375 1163.77 58.8421 1165.18 59.4653C1168 60.7082 1168 64.7084 1165.18 65.9512C1163.77 66.5744 1162.92 68.0415 1163.09 69.5771ZM1153.64 71.0805C1154.67 70.3236 1156.08 70.3236 1157.12 71.0805C1159.18 72.5887 1162.05 70.932 1161.77 68.3939C1161.64 67.1228 1162.34 65.9078 1163.51 65.3921C1165.84 64.3636 1165.84 61.053 1163.51 60.0244C1162.34 59.5087 1161.64 58.2937 1161.77 57.0226C1162.05 54.4845 1159.18 52.8278 1157.12 54.336C1156.08 55.0929 1154.67 55.0929 1153.64 54.336C1151.58 52.8278 1148.71 54.4845 1148.98 57.0226C1149.12 58.2937 1148.42 59.5087 1147.25 60.0244C1144.92 61.053 1144.92 64.3636 1147.25 65.3921C1148.42 65.9078 1149.12 67.1228 1148.98 68.3939C1148.71 70.932 1151.58 72.5887 1153.64 71.0805Z" fill="white"/>
<path d="M1170.93 55.7884C1169.6 55.7884 1168.53 54.7037 1168.53 53.3888C1168.53 52.074 1169.61 50.9893 1170.93 50.9893C1172.24 50.9893 1173.33 52.074 1173.33 53.3888C1173.33 54.7037 1172.24 55.7884 1170.93 55.7884ZM1170.93 52.1562C1170.25 52.1562 1169.71 52.6985 1169.71 53.3724C1169.71 54.0463 1170.25 54.5886 1170.93 54.5886C1171.6 54.5886 1172.14 54.0463 1172.14 53.3724C1172.14 52.6985 1171.6 52.1562 1170.93 52.1562Z" fill="white"/>
<path d="M1170.93 74.4261C1169.6 74.4261 1168.53 73.3414 1168.53 72.0265C1168.53 70.7117 1169.61 69.627 1170.93 69.627C1172.24 69.627 1173.33 70.7117 1173.33 72.0265C1173.33 73.3414 1172.24 74.4261 1170.93 74.4261ZM1170.93 70.8103C1170.25 70.8103 1169.71 71.3527 1169.71 72.0265C1169.71 72.7004 1170.25 73.2428 1170.93 73.2428C1171.6 73.2428 1172.14 72.7004 1172.14 72.0265C1172.14 71.3527 1171.6 70.8103 1170.93 70.8103Z" fill="white"/>
<path d="M1198.21 69.5771C1198.54 72.6393 1195.08 74.6386 1192.59 72.8195C1191.35 71.9074 1189.65 71.9074 1188.41 72.8195C1185.92 74.6386 1182.46 72.6393 1182.79 69.5771C1182.96 68.0415 1182.11 66.5744 1180.7 65.9512C1177.88 64.7084 1177.88 60.7082 1180.7 59.4653C1182.11 58.8421 1182.96 57.375 1182.79 55.8394C1182.46 52.7772 1185.92 50.778 1188.41 52.597C1189.65 53.5091 1191.35 53.5091 1192.59 52.597C1195.08 50.778 1198.54 52.7772 1198.21 55.8394C1198.04 57.375 1198.89 58.8421 1200.3 59.4653C1203.12 60.7082 1203.12 64.7084 1200.3 65.9512C1198.89 66.5744 1198.04 68.0415 1198.21 69.5771ZM1188.76 71.0805C1189.8 70.3236 1191.2 70.3236 1192.24 71.0805C1194.3 72.5887 1197.17 70.932 1196.9 68.3939C1196.76 67.1228 1197.46 65.9078 1198.63 65.3921C1200.96 64.3636 1200.96 61.053 1198.63 60.0244C1197.46 59.5087 1196.76 58.2937 1196.9 57.0226C1197.17 54.4845 1194.3 52.8278 1192.24 54.336C1191.2 55.0929 1189.8 55.0929 1188.76 54.336C1186.7 52.8278 1183.83 54.4845 1184.1 57.0226C1184.24 58.2937 1183.54 59.5087 1182.37 60.0244C1180.04 61.053 1180.04 64.3636 1182.37 65.3921C1183.54 65.9078 1184.24 67.1228 1184.1 68.3939C1183.83 70.932 1186.7 72.5887 1188.76 71.0805Z" fill="white"/>
<path d="M1110.43 99.292C1110.76 102.354 1107.3 104.353 1104.81 102.534C1103.57 101.622 1101.87 101.622 1100.63 102.534C1098.14 104.353 1094.68 102.354 1095.01 99.292C1095.18 97.7563 1094.33 96.2893 1092.92 95.6661C1090.1 94.4232 1090.1 90.423 1092.92 89.1801C1094.33 88.5569 1095.18 87.0899 1095.01 85.5542C1094.68 82.4921 1098.14 80.4928 1100.63 82.3119C1101.87 83.2239 1103.57 83.2239 1104.81 82.3119C1107.3 80.4928 1110.76 82.4921 1110.43 85.5542C1110.26 87.0899 1111.11 88.5569 1112.52 89.1801C1115.34 90.423 1115.34 94.4232 1112.52 95.6661C1111.11 96.2893 1110.26 97.7563 1110.43 99.292ZM1100.98 100.812C1102.02 100.055 1103.42 100.055 1104.46 100.812C1106.52 102.32 1109.39 100.663 1109.11 98.1252C1108.98 96.854 1109.68 95.6391 1110.85 95.1234C1113.18 94.0948 1113.18 90.7842 1110.85 89.7557C1109.68 89.2399 1108.98 88.025 1109.11 86.7539C1109.39 84.2158 1106.52 82.5591 1104.46 84.0672C1103.42 84.8242 1102.02 84.8242 1100.98 84.0672C1098.92 82.5591 1096.05 84.2158 1096.32 86.7539C1096.46 88.025 1095.76 89.2399 1094.59 89.7557C1092.26 90.7842 1092.26 94.0948 1094.59 95.1234C1095.76 95.6391 1096.46 96.854 1096.32 98.1252C1096.05 100.663 1098.92 102.32 1100.98 100.812Z" fill="white"/>
<path d="M1118.27 85.5052C1116.94 85.5052 1115.87 84.4205 1115.87 83.1056C1115.87 81.7908 1116.95 80.7061 1118.27 80.7061C1119.58 80.7061 1120.67 81.7908 1120.67 83.1056C1120.67 84.4205 1119.58 85.5052 1118.27 85.5052ZM1118.27 81.8894C1117.59 81.8894 1117.05 82.4318 1117.05 83.1056C1117.05 83.7795 1117.59 84.3219 1118.27 84.3219C1118.94 84.3219 1119.48 83.7795 1119.48 83.1056C1119.48 82.4318 1118.94 81.8894 1118.27 81.8894Z" fill="white"/>
<path d="M1118.27 104.159C1116.94 104.159 1115.87 103.074 1115.87 101.759C1115.87 100.444 1116.95 99.3594 1118.27 99.3594C1119.58 99.3594 1120.67 100.444 1120.67 101.759C1120.67 103.074 1119.58 104.159 1118.27 104.159ZM1118.27 100.526C1117.59 100.526 1117.05 101.069 1117.05 101.743C1117.05 102.416 1117.59 102.959 1118.27 102.959C1118.94 102.959 1119.48 102.416 1119.48 101.743C1119.48 101.069 1118.94 100.526 1118.27 100.526Z" fill="white"/>
<path d="M1145.53 99.292C1145.87 102.354 1142.4 104.353 1139.92 102.534C1138.67 101.622 1136.98 101.622 1135.73 102.534C1133.25 104.353 1129.78 102.354 1130.12 99.292C1130.28 97.7563 1129.44 96.2893 1128.02 95.6661C1125.2 94.4232 1125.2 90.423 1128.02 89.1801C1129.44 88.5569 1130.28 87.0899 1130.12 85.5542C1129.78 82.4921 1133.25 80.4928 1135.73 82.3119C1136.98 83.2239 1138.67 83.2239 1139.92 82.3119C1142.4 80.4928 1145.87 82.4921 1145.53 85.5542C1145.37 87.0899 1146.21 88.5569 1147.63 89.1801C1150.45 90.423 1150.45 94.4232 1147.63 95.6661C1146.21 96.2893 1145.37 97.7563 1145.53 99.292ZM1136.09 100.812C1137.12 100.055 1138.53 100.055 1139.56 100.812C1141.62 102.32 1144.5 100.663 1144.22 98.1252C1144.08 96.854 1144.78 95.6391 1145.95 95.1234C1148.29 94.0948 1148.29 90.7842 1145.95 89.7557C1144.78 89.2399 1144.08 88.025 1144.22 86.7539C1144.5 84.2158 1141.62 82.5591 1139.56 84.0672C1138.53 84.8242 1137.12 84.8242 1136.09 84.0672C1134.03 82.5591 1131.15 84.2158 1131.43 86.7539C1131.57 88.025 1130.87 89.2399 1129.7 89.7557C1127.36 90.7842 1127.36 94.0948 1129.7 95.1234C1130.87 95.6391 1131.57 96.854 1131.43 98.1252C1131.15 100.663 1134.03 102.32 1136.09 100.812Z" fill="white"/>
<path d="M1153.37 85.5052C1152.04 85.5052 1150.97 84.4205 1150.97 83.1056C1150.97 81.7908 1152.06 80.7061 1153.37 80.7061C1154.69 80.7061 1155.77 81.7908 1155.77 83.1056C1155.77 84.4205 1154.69 85.5052 1153.37 85.5052ZM1153.37 81.8894C1152.7 81.8894 1152.16 82.4318 1152.16 83.1056C1152.16 83.7795 1152.7 84.3219 1153.37 84.3219C1154.05 84.3219 1154.59 83.7795 1154.59 83.1056C1154.59 82.4318 1154.05 81.8894 1153.37 81.8894Z" fill="white"/>
<path d="M1153.37 104.159C1152.04 104.159 1150.97 103.074 1150.97 101.759C1150.97 100.444 1152.06 99.3594 1153.37 99.3594C1154.69 99.3594 1155.77 100.444 1155.77 101.759C1155.77 103.074 1154.69 104.159 1153.37 104.159ZM1153.37 100.526C1152.7 100.526 1152.16 101.069 1152.16 101.743C1152.16 102.416 1152.7 102.959 1153.37 102.959C1154.05 102.959 1154.59 102.416 1154.59 101.743C1154.59 101.069 1154.05 100.526 1153.37 100.526Z" fill="white"/>
<path d="M1180.64 99.292C1180.97 102.354 1177.51 104.353 1175.02 102.534C1173.78 101.622 1172.08 101.622 1170.84 102.534C1168.35 104.353 1164.89 102.354 1165.22 99.292C1165.39 97.7563 1164.54 96.2893 1163.13 95.6661C1160.31 94.4232 1160.31 90.423 1163.13 89.1801C1164.54 88.5569 1165.39 87.0899 1165.22 85.5542C1164.89 82.4921 1168.35 80.4928 1170.84 82.3119C1172.08 83.2239 1173.78 83.2239 1175.02 82.3119C1177.51 80.4928 1180.97 82.4921 1180.64 85.5542C1180.47 87.0899 1181.32 88.5569 1182.73 89.1801C1185.55 90.423 1185.55 94.4232 1182.73 95.6661C1181.32 96.2893 1180.47 97.7563 1180.64 99.292ZM1171.19 100.812C1172.23 100.055 1173.63 100.055 1174.67 100.812C1176.73 102.32 1179.6 100.663 1179.33 98.1252C1179.19 96.854 1179.89 95.6391 1181.06 95.1234C1183.39 94.0948 1183.39 90.7842 1181.06 89.7557C1179.89 89.2399 1179.19 88.025 1179.33 86.7539C1179.6 84.2158 1176.73 82.5591 1174.67 84.0672C1173.63 84.8242 1172.23 84.8242 1171.19 84.0672C1169.13 82.5591 1166.26 84.2158 1166.54 86.7539C1166.67 88.025 1165.97 89.2399 1164.8 89.7557C1162.47 90.7842 1162.47 94.0948 1164.8 95.1234C1165.97 95.6391 1166.67 96.854 1166.54 98.1252C1166.26 100.663 1169.13 102.32 1171.19 100.812Z" fill="white"/>
<path d="M1188.48 85.5052C1187.15 85.5052 1186.08 84.4205 1186.08 83.1056C1186.08 81.7908 1187.16 80.7061 1188.48 80.7061C1189.79 80.7061 1190.88 81.7908 1190.88 83.1056C1190.88 84.4205 1189.79 85.5052 1188.48 85.5052ZM1188.48 81.8894C1187.81 81.8894 1187.26 82.4318 1187.26 83.1056C1187.26 83.7795 1187.81 84.3219 1188.48 84.3219C1189.15 84.3219 1189.7 83.7795 1189.7 83.1056C1189.7 82.4318 1189.15 81.8894 1188.48 81.8894Z" fill="white"/>
<path d="M1188.48 104.159C1187.15 104.159 1186.08 103.074 1186.08 101.759C1186.08 100.444 1187.16 99.3594 1188.48 99.3594C1189.79 99.3594 1190.88 100.444 1190.88 101.759C1190.88 103.074 1189.79 104.159 1188.48 104.159ZM1188.48 100.526C1187.81 100.526 1187.26 101.069 1187.26 101.743C1187.26 102.416 1187.81 102.959 1188.48 102.959C1189.15 102.959 1189.7 102.416 1189.7 101.743C1189.7 101.069 1189.15 100.526 1188.48 100.526Z" fill="white"/>
<path d="M1215.76 99.292C1216.1 102.354 1212.63 104.353 1210.15 102.534C1208.9 101.622 1207.21 101.622 1205.96 102.534C1203.47 104.353 1200.01 102.354 1200.34 99.292C1200.51 97.7563 1199.66 96.2893 1198.25 95.6661C1195.43 94.4232 1195.43 90.423 1198.25 89.1801C1199.66 88.5569 1200.51 87.0899 1200.34 85.5542C1200.01 82.4921 1203.47 80.4928 1205.96 82.3119C1207.21 83.2239 1208.9 83.2239 1210.15 82.3119C1212.63 80.4928 1216.1 82.4921 1215.76 85.5542C1215.6 87.0899 1216.44 88.5569 1217.86 89.1801C1220.68 90.423 1220.68 94.4232 1217.86 95.6661C1216.44 96.2893 1215.6 97.7563 1215.76 99.292ZM1206.32 100.812C1207.35 100.055 1208.76 100.055 1209.79 100.812C1211.85 102.32 1214.73 100.663 1214.45 98.1252C1214.31 96.854 1215.01 95.6391 1216.18 95.1234C1218.52 94.0948 1218.52 90.7842 1216.18 89.7557C1215.01 89.2399 1214.31 88.025 1214.45 86.7539C1214.73 84.2158 1211.85 82.5591 1209.79 84.0672C1208.76 84.8242 1207.35 84.8242 1206.32 84.0672C1204.26 82.5591 1201.38 84.2158 1201.66 86.7539C1201.8 88.025 1201.1 89.2399 1199.93 89.7557C1197.59 90.7842 1197.59 94.0948 1199.93 95.1234C1201.1 95.6391 1201.8 96.854 1201.66 98.1252C1201.38 100.663 1204.26 102.32 1206.32 100.812Z" fill="white"/>
<path d="M1127.98 129.024C1128.31 132.087 1124.85 134.086 1122.36 132.267C1121.12 131.355 1119.42 131.355 1118.18 132.267C1115.69 134.086 1112.23 132.087 1112.56 129.024C1112.73 127.489 1111.88 126.022 1110.47 125.399C1107.65 124.156 1107.65 120.155 1110.47 118.913C1111.88 118.289 1112.73 116.822 1112.56 115.287C1112.23 112.225 1115.69 110.225 1118.18 112.044C1119.42 112.956 1121.12 112.956 1122.36 112.044C1124.85 110.225 1128.31 112.225 1127.98 115.287C1127.81 116.822 1128.66 118.289 1130.07 118.913C1132.89 120.155 1132.89 124.156 1130.07 125.399C1128.66 126.022 1127.81 127.489 1127.98 129.024ZM1118.53 130.528C1119.57 129.771 1120.98 129.771 1122.01 130.528C1124.07 132.036 1126.94 130.379 1126.67 127.841C1126.53 126.57 1127.23 125.355 1128.4 124.839C1130.73 123.811 1130.73 120.5 1128.4 119.472C1127.23 118.956 1126.53 117.741 1126.67 116.47C1126.94 113.932 1124.07 112.275 1122.01 113.783C1120.98 114.54 1119.57 114.54 1118.53 113.783C1116.47 112.275 1113.6 113.932 1113.88 116.47C1114.01 117.741 1113.31 118.956 1112.14 119.472C1109.81 120.5 1109.81 123.811 1112.14 124.839C1113.31 125.355 1114.01 126.57 1113.88 127.841C1113.6 130.379 1116.47 132.036 1118.53 130.528Z" fill="white"/>
<path d="M1135.82 115.219C1134.49 115.219 1133.42 114.134 1133.42 112.819C1133.42 111.505 1134.5 110.42 1135.82 110.42C1137.13 110.42 1138.22 111.505 1138.22 112.819C1138.22 114.134 1137.13 115.219 1135.82 115.219ZM1135.82 111.603C1135.15 111.603 1134.6 112.146 1134.6 112.819C1134.6 113.493 1135.15 114.036 1135.82 114.036C1136.49 114.036 1137.04 113.493 1137.04 112.819C1137.04 112.146 1136.49 111.603 1135.82 111.603Z" fill="white"/>
<path d="M1163.09 129.024C1163.42 132.087 1159.96 134.086 1157.47 132.267C1156.23 131.355 1154.53 131.355 1153.29 132.267C1150.8 134.086 1147.34 132.087 1147.67 129.024C1147.84 127.489 1146.99 126.022 1145.58 125.399C1142.76 124.156 1142.76 120.155 1145.58 118.913C1146.99 118.289 1147.84 116.822 1147.67 115.287C1147.34 112.225 1150.8 110.225 1153.29 112.044C1154.53 112.956 1156.23 112.956 1157.47 112.044C1159.96 110.225 1163.42 112.225 1163.09 115.287C1162.92 116.822 1163.77 118.289 1165.18 118.913C1168 120.155 1168 124.156 1165.18 125.399C1163.77 126.022 1162.92 127.489 1163.09 129.024ZM1153.64 130.528C1154.67 129.771 1156.08 129.771 1157.12 130.528C1159.18 132.036 1162.05 130.379 1161.77 127.841C1161.64 126.57 1162.34 125.355 1163.51 124.839C1165.84 123.811 1165.84 120.5 1163.51 119.472C1162.34 118.956 1161.64 117.741 1161.77 116.47C1162.05 113.932 1159.18 112.275 1157.12 113.783C1156.08 114.54 1154.67 114.54 1153.64 113.783C1151.58 112.275 1148.71 113.932 1148.98 116.47C1149.12 117.741 1148.42 118.956 1147.25 119.472C1144.92 120.5 1144.92 123.811 1147.25 124.839C1148.42 125.355 1149.12 126.57 1148.98 127.841C1148.71 130.379 1151.58 132.036 1153.64 130.528Z" fill="white"/>
<path d="M1170.93 115.219C1169.59 115.219 1168.53 114.134 1168.53 112.819C1168.53 111.505 1169.61 110.42 1170.93 110.42C1172.24 110.42 1173.33 111.505 1173.33 112.819C1173.33 114.134 1172.24 115.219 1170.93 115.219ZM1170.93 111.603C1170.25 111.603 1169.71 112.146 1169.71 112.819C1169.71 113.493 1170.25 114.036 1170.93 114.036C1171.6 114.036 1172.14 113.493 1172.14 112.819C1172.14 112.146 1171.6 111.603 1170.93 111.603Z" fill="white"/>
<path d="M1198.21 129.024C1198.54 132.087 1195.08 134.086 1192.59 132.267C1191.35 131.355 1189.65 131.355 1188.41 132.267C1185.92 134.086 1182.46 132.087 1182.79 129.024C1182.96 127.489 1182.11 126.022 1180.7 125.399C1177.88 124.156 1177.88 120.155 1180.7 118.913C1182.11 118.289 1182.96 116.822 1182.79 115.287C1182.46 112.225 1185.92 110.225 1188.41 112.044C1189.65 112.956 1191.35 112.956 1192.59 112.044C1195.08 110.225 1198.54 112.225 1198.21 115.287C1198.04 116.822 1198.89 118.289 1200.3 118.913C1203.12 120.155 1203.12 124.156 1200.3 125.399C1198.89 126.022 1198.04 127.489 1198.21 129.024ZM1188.76 130.528C1189.8 129.771 1191.2 129.771 1192.24 130.528C1194.3 132.036 1197.17 130.379 1196.9 127.841C1196.76 126.57 1197.46 125.355 1198.63 124.839C1200.96 123.811 1200.96 120.5 1198.63 119.472C1197.46 118.956 1196.76 117.741 1196.9 116.47C1197.17 113.932 1194.3 112.275 1192.24 113.783C1191.2 114.54 1189.8 114.54 1188.76 113.783C1186.7 112.275 1183.83 113.932 1184.1 116.47C1184.24 117.741 1183.54 118.956 1182.37 119.472C1180.04 120.5 1180.04 123.811 1182.37 124.839C1183.54 125.355 1184.24 126.57 1184.1 127.841C1183.83 130.379 1186.7 132.036 1188.76 130.528Z" fill="white"/>
</g>
<g style="mix-blend-mode:multiply" opacity="0.25">
<mask id="mask2_202_19253" style="mask-type:luminance" maskUnits="userSpaceOnUse" x="1060" y="-72" width="193" height="194">
<path d="M1168.3 116.487C1162.05 122.732 1151.93 122.731 1145.68 116.484L1131.81 102.617C1128.81 99.6166 1124.74 97.9309 1120.5 97.9309H1100.28C1091.44 97.9309 1084.28 90.7675 1084.28 81.9309V61.7111C1084.28 57.4676 1082.59 53.3979 1079.59 50.3974L1065.29 36.0903C1059.04 29.842 1059.04 19.7113 1065.29 13.4629L1079.59 -0.844093C1082.59 -3.84467 1084.28 -7.91434 1084.28 -12.1578V-31.7696C1084.28 -40.6061 1091.44 -47.7696 1100.28 -47.7696H1119.89C1124.13 -47.7696 1128.2 -49.4553 1131.2 -52.4558L1145.07 -66.3191C1151.32 -72.5675 1161.45 -72.5675 1167.69 -66.3191L1181.56 -52.4558C1184.56 -49.4553 1188.63 -47.7696 1192.87 -47.7696H1213.09C1221.93 -47.7696 1229.09 -40.6061 1229.09 -31.7696V-11.5332C1229.09 -7.28979 1230.78 -3.22013 1233.78 -0.219551L1248.08 14.0875C1254.33 20.3359 1254.33 30.4665 1248.08 36.7149L1233.78 51.0219C1230.78 54.0225 1229.09 58.0921 1229.09 62.3356V81.9309C1229.09 90.7675 1221.93 97.9309 1213.09 97.9309H1193.49C1189.25 97.9309 1185.18 99.6154 1182.18 102.614L1168.3 116.487Z" fill="white"/>
</mask>
<g mask="url(#mask2_202_19253)">
<path d="M1168.3 116.487C1162.05 122.732 1151.93 122.731 1145.68 116.484L1131.81 102.617C1128.81 99.6166 1124.74 97.9309 1120.5 97.9309H1100.28C1091.44 97.9309 1084.28 90.7675 1084.28 81.9309V61.7111C1084.28 57.4676 1082.59 53.3979 1079.59 50.3974L1065.28 36.0903C1059.04 29.842 1059.04 19.7113 1065.28 13.4629L1079.59 -0.844093C1082.59 -3.84467 1084.28 -7.91434 1084.28 -12.1578V-31.7696C1084.28 -40.6061 1091.44 -47.7696 1100.28 -47.7696H1119.89C1124.13 -47.7696 1128.2 -49.4553 1131.2 -52.4558L1145.07 -66.3191C1151.32 -72.5675 1161.45 -72.5675 1167.69 -66.3191L1181.56 -52.4558C1184.56 -49.4553 1188.63 -47.7696 1192.87 -47.7696H1213.09C1221.93 -47.7696 1229.09 -40.6061 1229.09 -31.7696V-11.5332C1229.09 -7.28979 1230.78 -3.22013 1233.78 -0.219551L1248.08 14.0875C1254.33 20.3359 1254.33 30.4665 1248.08 36.7149L1233.78 51.0219C1230.78 54.0225 1229.09 58.0921 1229.09 62.3356V81.9309C1229.09 90.7675 1221.93 97.9309 1213.09 97.9309H1193.49C1189.25 97.9309 1185.18 99.6154 1182.18 102.614L1168.3 116.487Z" fill="#333333"/>
<path d="M1057.75 10.1299C1058.09 13.192 1054.62 15.1913 1052.14 13.3722C1050.89 12.4602 1049.2 12.4602 1047.95 13.3722C1045.46 15.1913 1042 13.192 1042.33 10.1299C1042.5 8.5942 1041.65 7.12714 1040.24 6.50398C1037.42 5.26109 1037.42 1.26089 1040.24 0.0180035C1041.65 -0.605163 1042.5 -2.07222 1042.33 -3.60788C1042 -6.67003 1045.46 -8.66931 1047.95 -6.85025C1049.2 -5.93819 1050.89 -5.93819 1052.14 -6.85025C1054.62 -8.66931 1058.09 -6.67003 1057.75 -3.60788C1057.59 -2.07222 1058.43 -0.605163 1059.85 0.0180035C1062.66 1.26089 1062.66 5.26109 1059.85 6.50398C1058.43 7.12714 1057.59 8.5942 1057.75 10.1299ZM1048.31 11.6333C1049.34 10.8764 1050.75 10.8764 1051.78 11.6333C1053.84 13.1414 1056.71 11.4847 1056.44 8.94663C1056.3 7.67551 1057 6.46058 1058.17 5.94483C1060.5 4.91629 1060.5 1.6057 1058.17 0.57716C1057 0.061409 1056.3 -1.15352 1056.44 -2.42464C1056.71 -4.96276 1053.84 -6.61946 1051.78 -5.1113C1050.75 -4.35437 1049.34 -4.35437 1048.31 -5.1113C1046.25 -6.61946 1043.37 -4.96276 1043.65 -2.42464C1043.79 -1.15352 1043.08 0.061409 1041.91 0.57716C1039.58 1.6057 1039.58 4.91629 1041.91 5.94483C1043.08 6.46058 1043.79 7.67551 1043.65 8.94663C1043.37 11.4847 1046.25 13.1414 1048.31 11.6333Z" fill="#333333"/>
<path d="M1065.59 14.9954C1064.26 14.9954 1063.19 13.9107 1063.19 12.5959C1063.19 11.281 1064.28 10.1963 1065.59 10.1963C1066.91 10.1963 1067.99 11.281 1067.99 12.5959C1067.99 13.9107 1066.91 14.9954 1065.59 14.9954ZM1065.59 11.3632C1064.92 11.3632 1064.37 11.9056 1064.37 12.5794C1064.37 13.2533 1064.92 13.7957 1065.59 13.7957C1066.26 13.7957 1066.81 13.2533 1066.81 12.5794C1066.81 11.9056 1066.26 11.3632 1065.59 11.3632Z" fill="#333333"/>
<path d="M1092.88 10.1299C1093.21 13.192 1089.74 15.1913 1087.26 13.3722C1086.01 12.4602 1084.32 12.4602 1083.07 13.3722C1080.59 15.1913 1077.12 13.192 1077.46 10.1299C1077.62 8.5942 1076.78 7.12714 1075.36 6.50398C1072.54 5.26109 1072.54 1.26089 1075.36 0.0180035C1076.78 -0.605163 1077.62 -2.07222 1077.46 -3.60788C1077.12 -6.67003 1080.59 -8.66931 1083.07 -6.85025C1084.32 -5.93819 1086.01 -5.93819 1087.26 -6.85025C1089.74 -8.66931 1093.21 -6.67003 1092.88 -3.60788C1092.71 -2.07222 1093.56 -0.605163 1094.97 0.0180035C1097.79 1.26089 1097.79 5.26109 1094.97 6.50398C1093.56 7.12714 1092.71 8.5942 1092.88 10.1299ZM1083.43 11.6333C1084.46 10.8764 1085.87 10.8764 1086.9 11.6333C1088.96 13.1414 1091.84 11.4847 1091.56 8.94663C1091.42 7.67551 1092.12 6.46058 1093.29 5.94483C1095.63 4.91629 1095.63 1.6057 1093.29 0.57716C1092.12 0.061409 1091.42 -1.15352 1091.56 -2.42464C1091.84 -4.96276 1088.96 -6.61946 1086.9 -5.1113C1085.87 -4.35437 1084.46 -4.35437 1083.43 -5.1113C1081.37 -6.61946 1078.49 -4.96275 1078.77 -2.42464C1078.91 -1.15352 1078.21 0.061409 1077.04 0.57716C1074.7 1.6057 1074.7 4.91629 1077.04 5.94483C1078.21 6.46058 1078.91 7.67551 1078.77 8.94663C1078.49 11.4847 1081.37 13.1414 1083.43 11.6333Z" fill="#333333"/>
<path d="M1100.71 14.9954C1099.38 14.9954 1098.31 13.9107 1098.31 12.5959C1098.31 11.281 1099.4 10.1963 1100.71 10.1963C1102.03 10.1963 1103.11 11.281 1103.11 12.5959C1103.11 13.9107 1102.03 14.9954 1100.71 14.9954ZM1100.71 11.3632C1100.04 11.3632 1099.5 11.9056 1099.5 12.5794C1099.5 13.2533 1100.04 13.7957 1100.71 13.7957C1101.39 13.7957 1101.93 13.2533 1101.93 12.5794C1101.93 11.9056 1101.39 11.3632 1100.71 11.3632Z" fill="#333333"/>
<path d="M1127.98 10.1299C1128.31 13.192 1124.85 15.1913 1122.36 13.3722C1121.12 12.4602 1119.42 12.4602 1118.18 13.3722C1115.69 15.1913 1112.23 13.192 1112.56 10.1299C1112.73 8.5942 1111.88 7.12714 1110.47 6.50398C1107.65 5.26109 1107.65 1.26089 1110.47 0.0180035C1111.88 -0.605162 1112.73 -2.07222 1112.56 -3.60788C1112.23 -6.67003 1115.69 -8.66931 1118.18 -6.85025C1119.42 -5.93819 1121.12 -5.93819 1122.36 -6.85025C1124.85 -8.66931 1128.31 -6.67004 1127.98 -3.60788C1127.81 -2.07222 1128.66 -0.605163 1130.07 0.0180044C1132.89 1.26089 1132.89 5.26109 1130.07 6.50398C1128.66 7.12714 1127.81 8.5942 1127.98 10.1299ZM1118.53 11.6333C1119.57 10.8764 1120.98 10.8764 1122.01 11.6333C1124.07 13.1414 1126.94 11.4847 1126.67 8.94663C1126.53 7.67551 1127.23 6.46058 1128.4 5.94483C1130.73 4.91629 1130.73 1.6057 1128.4 0.57716C1127.23 0.06141 1126.53 -1.15352 1126.67 -2.42464C1126.94 -4.96276 1124.07 -6.61946 1122.01 -5.1113C1120.98 -4.35437 1119.57 -4.35437 1118.53 -5.1113C1116.47 -6.61946 1113.6 -4.96275 1113.88 -2.42464C1114.01 -1.15352 1113.31 0.06141 1112.14 0.57716C1109.81 1.6057 1109.81 4.91629 1112.14 5.94483C1113.31 6.46058 1114.01 7.67551 1113.88 8.94663C1113.6 11.4847 1116.47 13.1414 1118.53 11.6333Z" fill="#333333"/>
<path d="M1135.82 14.9954C1134.49 14.9954 1133.42 13.9107 1133.42 12.5959C1133.42 11.281 1134.5 10.1963 1135.82 10.1963C1137.13 10.1963 1138.22 11.281 1138.22 12.5959C1138.22 13.9107 1137.13 14.9954 1135.82 14.9954ZM1135.82 11.3632C1135.15 11.3632 1134.6 11.9056 1134.6 12.5794C1134.6 13.2533 1135.15 13.7957 1135.82 13.7957C1136.49 13.7957 1137.04 13.2533 1137.04 12.5794C1137.04 11.9056 1136.49 11.3632 1135.82 11.3632Z" fill="#333333"/>
<path d="M1163.09 10.1299C1163.42 13.192 1159.96 15.1913 1157.47 13.3722C1156.23 12.4602 1154.53 12.4602 1153.29 13.3722C1150.8 15.1913 1147.34 13.192 1147.67 10.1299C1147.84 8.5942 1146.99 7.12714 1145.58 6.50398C1142.76 5.26109 1142.76 1.26089 1145.58 0.0180035C1146.99 -0.605162 1147.84 -2.07222 1147.67 -3.60788C1147.34 -6.67003 1150.8 -8.66931 1153.29 -6.85025C1154.53 -5.93819 1156.23 -5.93819 1157.47 -6.85025C1159.96 -8.66931 1163.42 -6.67004 1163.09 -3.60788C1162.92 -2.07222 1163.77 -0.605163 1165.18 0.0180044C1168 1.26089 1168 5.26109 1165.18 6.50398C1163.77 7.12714 1162.92 8.5942 1163.09 10.1299ZM1153.64 11.6333C1154.67 10.8764 1156.08 10.8764 1157.12 11.6333C1159.18 13.1414 1162.05 11.4847 1161.77 8.94663C1161.64 7.67551 1162.34 6.46058 1163.51 5.94483C1165.84 4.91629 1165.84 1.6057 1163.51 0.57716C1162.34 0.06141 1161.64 -1.15352 1161.77 -2.42464C1162.05 -4.96276 1159.18 -6.61946 1157.12 -5.1113C1156.08 -4.35437 1154.67 -4.35437 1153.64 -5.1113C1151.58 -6.61946 1148.71 -4.96275 1148.98 -2.42464C1149.12 -1.15352 1148.42 0.06141 1147.25 0.57716C1144.92 1.6057 1144.92 4.91629 1147.25 5.94483C1148.42 6.46058 1149.12 7.67551 1148.98 8.94663C1148.71 11.4847 1151.58 13.1414 1153.64 11.6333Z" fill="#333333"/>
<path d="M1170.93 14.9954C1169.6 14.9954 1168.53 13.9107 1168.53 12.5959C1168.53 11.281 1169.61 10.1963 1170.93 10.1963C1172.24 10.1963 1173.33 11.281 1173.33 12.5959C1173.33 13.9107 1172.24 14.9954 1170.93 14.9954ZM1170.93 11.3632C1170.25 11.3632 1169.71 11.9056 1169.71 12.5794C1169.71 13.2533 1170.25 13.7957 1170.93 13.7957C1171.6 13.7957 1172.14 13.2533 1172.14 12.5794C1172.14 11.9056 1171.6 11.3632 1170.93 11.3632Z" fill="#333333"/>
<path d="M1198.21 10.1299C1198.54 13.192 1195.08 15.1913 1192.59 13.3722C1191.35 12.4602 1189.65 12.4602 1188.41 13.3722C1185.92 15.1913 1182.46 13.192 1182.79 10.1299C1182.96 8.5942 1182.11 7.12714 1180.7 6.50398C1177.88 5.26109 1177.88 1.26089 1180.7 0.0180044C1182.11 -0.605163 1182.96 -2.07222 1182.79 -3.60788C1182.46 -6.67004 1185.92 -8.66931 1188.41 -6.85025C1189.65 -5.93819 1191.35 -5.93819 1192.59 -6.85025C1195.08 -8.66931 1198.54 -6.67003 1198.21 -3.60788C1198.04 -2.07222 1198.89 -0.605162 1200.3 0.0180044C1203.12 1.26089 1203.12 5.26109 1200.3 6.50398C1198.89 7.12714 1198.04 8.5942 1198.21 10.1299ZM1188.76 11.6333C1189.8 10.8764 1191.2 10.8764 1192.24 11.6333C1194.3 13.1414 1197.17 11.4847 1196.9 8.94663C1196.76 7.67551 1197.46 6.46058 1198.63 5.94483C1200.96 4.91629 1200.96 1.6057 1198.63 0.577159C1197.46 0.061409 1196.76 -1.15352 1196.9 -2.42464C1197.17 -4.96275 1194.3 -6.61946 1192.24 -5.1113C1191.2 -4.35437 1189.8 -4.35437 1188.76 -5.1113C1186.7 -6.61946 1183.83 -4.96276 1184.1 -2.42464C1184.24 -1.15352 1183.54 0.061409 1182.37 0.57716C1180.04 1.6057 1180.04 4.91629 1182.37 5.94483C1183.54 6.46058 1184.24 7.67551 1184.1 8.94663C1183.83 11.4847 1186.7 13.1414 1188.76 11.6333Z" fill="#333333"/>
<path d="M1075.32 39.8457C1075.66 42.9078 1072.19 44.9071 1069.71 43.088C1068.46 42.176 1066.77 42.176 1065.52 43.088C1063.03 44.9071 1059.57 42.9078 1059.9 39.8457C1060.07 38.31 1059.22 36.843 1057.81 36.2198C1054.99 34.9769 1054.99 30.9767 1057.81 29.7338C1059.22 29.1107 1060.07 27.6436 1059.9 26.1079C1059.57 23.0458 1063.03 21.0465 1065.52 22.8656C1066.77 23.7776 1068.46 23.7776 1069.71 22.8656C1072.19 21.0465 1075.66 23.0458 1075.32 26.1079C1075.15 27.6436 1076 29.1107 1077.42 29.7338C1080.23 30.9767 1080.23 34.9769 1077.42 36.2198C1076 36.843 1075.15 38.31 1075.32 39.8457ZM1065.87 41.3655C1066.91 40.6086 1068.32 40.6086 1069.35 41.3655C1071.41 42.8737 1074.28 41.217 1074.01 38.6789C1073.87 37.4078 1074.57 36.1928 1075.74 35.6771C1078.07 34.6485 1078.07 31.338 1075.74 30.3094C1074.57 29.7937 1073.87 28.5787 1074.01 27.3076C1074.28 24.7695 1071.41 23.1128 1069.35 24.6209C1068.32 25.3779 1066.91 25.3779 1065.87 24.6209C1063.81 23.1128 1060.94 24.7695 1061.22 27.3076C1061.35 28.5787 1060.65 29.7937 1059.48 30.3094C1057.15 31.338 1057.15 34.6485 1059.48 35.6771C1060.65 36.1928 1061.35 37.4078 1061.22 38.6789C1060.94 41.217 1063.81 42.8737 1065.87 41.3655Z" fill="#333333"/>
<path d="M1083.14 26.057C1081.81 26.057 1080.74 24.9722 1080.74 23.6574C1080.74 22.3426 1081.83 21.2578 1083.14 21.2578C1084.46 21.2578 1085.54 22.3426 1085.54 23.6574C1085.54 24.9722 1084.46 26.057 1083.14 26.057ZM1083.14 22.4412C1082.47 22.4412 1081.93 22.9835 1081.93 23.6574C1081.93 24.3313 1082.47 24.8736 1083.14 24.8736C1083.82 24.8736 1084.36 24.3313 1084.36 23.6574C1084.36 22.9835 1083.82 22.4412 1083.14 22.4412Z" fill="#333333"/>
<path d="M1083.14 44.7103C1081.81 44.7103 1080.74 43.6255 1080.74 42.3107C1080.74 40.9959 1081.83 39.9111 1083.14 39.9111C1084.46 39.9111 1085.54 40.9959 1085.54 42.3107C1085.54 43.6255 1084.46 44.7103 1083.14 44.7103ZM1083.14 41.0945C1082.47 41.0945 1081.93 41.6369 1081.93 42.3107C1081.93 42.9846 1082.47 43.5269 1083.14 43.5269C1083.82 43.5269 1084.36 42.9846 1084.36 42.3107C1084.36 41.6369 1083.82 41.0945 1083.14 41.0945Z" fill="#333333"/>
<path d="M1110.43 39.8457C1110.76 42.9078 1107.3 44.9071 1104.81 43.088C1103.57 42.176 1101.87 42.176 1100.63 43.088C1098.14 44.9071 1094.68 42.9078 1095.01 39.8457C1095.18 38.31 1094.33 36.843 1092.92 36.2198C1090.1 34.9769 1090.1 30.9767 1092.92 29.7338C1094.33 29.1107 1095.18 27.6436 1095.01 26.1079C1094.68 23.0458 1098.14 21.0465 1100.63 22.8656C1101.87 23.7776 1103.57 23.7776 1104.81 22.8656C1107.3 21.0465 1110.76 23.0458 1110.43 26.1079C1110.26 27.6436 1111.11 29.1107 1112.52 29.7338C1115.34 30.9767 1115.34 34.9769 1112.52 36.2198C1111.11 36.843 1110.26 38.31 1110.43 39.8457ZM1100.98 41.3655C1102.02 40.6086 1103.42 40.6086 1104.46 41.3655C1106.52 42.8737 1109.39 41.217 1109.11 38.6789C1108.98 37.4078 1109.68 36.1928 1110.85 35.6771C1113.18 34.6485 1113.18 31.338 1110.85 30.3094C1109.68 29.7937 1108.98 28.5787 1109.11 27.3076C1109.39 24.7695 1106.52 23.1128 1104.46 24.6209C1103.42 25.3779 1102.02 25.3779 1100.98 24.6209C1098.92 23.1128 1096.05 24.7695 1096.32 27.3076C1096.46 28.5787 1095.76 29.7937 1094.59 30.3094C1092.26 31.338 1092.26 34.6485 1094.59 35.6771C1095.76 36.1928 1096.46 37.4078 1096.32 38.6789C1096.05 41.217 1098.92 42.8737 1100.98 41.3655Z" fill="#333333"/>
<path d="M1118.27 26.057C1116.94 26.057 1115.87 24.9722 1115.87 23.6574C1115.87 22.3426 1116.95 21.2578 1118.27 21.2578C1119.58 21.2578 1120.67 22.3426 1120.67 23.6574C1120.67 24.9722 1119.58 26.057 1118.27 26.057ZM1118.27 22.4412C1117.59 22.4412 1117.05 22.9835 1117.05 23.6574C1117.05 24.3313 1117.59 24.8736 1118.27 24.8736C1118.94 24.8736 1119.48 24.3313 1119.48 23.6574C1119.48 22.9835 1118.94 22.4412 1118.27 22.4412Z" fill="#333333"/>
<path d="M1118.27 44.7103C1116.94 44.7103 1115.87 43.6255 1115.87 42.3107C1115.87 40.9959 1116.95 39.9111 1118.27 39.9111C1119.58 39.9111 1120.67 40.9959 1120.67 42.3107C1120.67 43.6255 1119.58 44.7103 1118.27 44.7103ZM1118.27 41.0945C1117.59 41.0945 1117.05 41.6369 1117.05 42.3107C1117.05 42.9846 1117.59 43.5269 1118.27 43.5269C1118.94 43.5269 1119.48 42.9846 1119.48 42.3107C1119.48 41.6369 1118.94 41.0945 1118.27 41.0945Z" fill="#333333"/>
<path d="M1145.53 39.8457C1145.87 42.9078 1142.4 44.9071 1139.92 43.088C1138.67 42.176 1136.98 42.176 1135.73 43.088C1133.25 44.9071 1129.78 42.9078 1130.12 39.8457C1130.28 38.31 1129.44 36.843 1128.02 36.2198C1125.2 34.9769 1125.2 30.9767 1128.02 29.7338C1129.44 29.1107 1130.28 27.6436 1130.12 26.1079C1129.78 23.0458 1133.25 21.0465 1135.73 22.8656C1136.98 23.7776 1138.67 23.7776 1139.92 22.8656C1142.4 21.0465 1145.87 23.0458 1145.53 26.1079C1145.37 27.6436 1146.21 29.1107 1147.63 29.7338C1150.45 30.9767 1150.45 34.9769 1147.63 36.2198C1146.21 36.843 1145.37 38.31 1145.53 39.8457ZM1136.09 41.3655C1137.12 40.6086 1138.53 40.6086 1139.56 41.3655C1141.62 42.8737 1144.5 41.217 1144.22 38.6789C1144.08 37.4078 1144.78 36.1928 1145.95 35.6771C1148.29 34.6485 1148.29 31.338 1145.95 30.3094C1144.78 29.7937 1144.08 28.5787 1144.22 27.3076C1144.5 24.7695 1141.62 23.1128 1139.56 24.6209C1138.53 25.3779 1137.12 25.3779 1136.09 24.6209C1134.03 23.1128 1131.15 24.7695 1131.43 27.3076C1131.57 28.5787 1130.87 29.7937 1129.7 30.3094C1127.36 31.338 1127.36 34.6485 1129.7 35.6771C1130.87 36.1928 1131.57 37.4078 1131.43 38.6789C1131.15 41.217 1134.03 42.8737 1136.09 41.3655Z" fill="#333333"/>
<path d="M1153.37 26.057C1152.04 26.057 1150.97 24.9722 1150.97 23.6574C1150.97 22.3426 1152.06 21.2578 1153.37 21.2578C1154.69 21.2578 1155.77 22.3426 1155.77 23.6574C1155.77 24.9722 1154.69 26.057 1153.37 26.057ZM1153.37 22.4412C1152.7 22.4412 1152.16 22.9835 1152.16 23.6574C1152.16 24.3313 1152.7 24.8736 1153.37 24.8736C1154.05 24.8736 1154.59 24.3313 1154.59 23.6574C1154.59 22.9835 1154.05 22.4412 1153.37 22.4412Z" fill="#333333"/>
<path d="M1153.37 44.7103C1152.04 44.7103 1150.97 43.6255 1150.97 42.3107C1150.97 40.9959 1152.06 39.9111 1153.37 39.9111C1154.69 39.9111 1155.77 40.9959 1155.77 42.3107C1155.77 43.6255 1154.69 44.7103 1153.37 44.7103ZM1153.37 41.0945C1152.7 41.0945 1152.16 41.6369 1152.16 42.3107C1152.16 42.9846 1152.7 43.5269 1153.37 43.5269C1154.05 43.5269 1154.59 42.9846 1154.59 42.3107C1154.59 41.6369 1154.05 41.0945 1153.37 41.0945Z" fill="#333333"/>
<path d="M1180.64 39.8457C1180.97 42.9078 1177.51 44.9071 1175.02 43.088C1173.78 42.176 1172.08 42.176 1170.84 43.088C1168.35 44.9071 1164.89 42.9078 1165.22 39.8457C1165.39 38.31 1164.54 36.843 1163.13 36.2198C1160.31 34.9769 1160.31 30.9767 1163.13 29.7338C1164.54 29.1107 1165.39 27.6436 1165.22 26.1079C1164.89 23.0458 1168.35 21.0465 1170.84 22.8656C1172.08 23.7776 1173.78 23.7776 1175.02 22.8656C1177.51 21.0465 1180.97 23.0458 1180.64 26.1079C1180.47 27.6436 1181.32 29.1107 1182.73 29.7338C1185.55 30.9767 1185.55 34.9769 1182.73 36.2198C1181.32 36.843 1180.47 38.31 1180.64 39.8457ZM1171.19 41.3655C1172.23 40.6086 1173.63 40.6086 1174.67 41.3655C1176.73 42.8737 1179.6 41.217 1179.33 38.6789C1179.19 37.4078 1179.89 36.1928 1181.06 35.6771C1183.39 34.6485 1183.39 31.338 1181.06 30.3094C1179.89 29.7937 1179.19 28.5787 1179.33 27.3076C1179.6 24.7695 1176.73 23.1128 1174.67 24.6209C1173.63 25.3779 1172.23 25.3779 1171.19 24.6209C1169.13 23.1128 1166.26 24.7695 1166.54 27.3076C1166.67 28.5787 1165.97 29.7937 1164.8 30.3094C1162.47 31.338 1162.47 34.6485 1164.8 35.6771C1165.97 36.1928 1166.67 37.4078 1166.54 38.6789C1166.26 41.217 1169.13 42.8737 1171.19 41.3655Z" fill="#333333"/>
<path d="M1188.48 26.057C1187.15 26.057 1186.08 24.9722 1186.08 23.6574C1186.08 22.3426 1187.16 21.2578 1188.48 21.2578C1189.79 21.2578 1190.88 22.3426 1190.88 23.6574C1190.88 24.9722 1189.79 26.057 1188.48 26.057ZM1188.48 22.4412C1187.81 22.4412 1187.26 22.9835 1187.26 23.6574C1187.26 24.3313 1187.81 24.8736 1188.48 24.8736C1189.15 24.8736 1189.7 24.3313 1189.7 23.6574C1189.7 22.9835 1189.15 22.4412 1188.48 22.4412Z" fill="#333333"/>
<path d="M1188.48 44.7103C1187.15 44.7103 1186.08 43.6255 1186.08 42.3107C1186.08 40.9959 1187.16 39.9111 1188.48 39.9111C1189.79 39.9111 1190.88 40.9959 1190.88 42.3107C1190.88 43.6255 1189.79 44.7103 1188.48 44.7103ZM1188.48 41.0945C1187.81 41.0945 1187.26 41.6369 1187.26 42.3107C1187.26 42.9846 1187.81 43.5269 1188.48 43.5269C1189.15 43.5269 1189.7 42.9846 1189.7 42.3107C1189.7 41.6369 1189.15 41.0945 1188.48 41.0945Z" fill="#333333"/>
<path d="M1215.76 39.8457C1216.1 42.9078 1212.63 44.9071 1210.15 43.088C1208.9 42.176 1207.21 42.176 1205.96 43.088C1203.47 44.9071 1200.01 42.9078 1200.34 39.8457C1200.51 38.31 1199.66 36.843 1198.25 36.2198C1195.43 34.9769 1195.43 30.9767 1198.25 29.7338C1199.66 29.1107 1200.51 27.6436 1200.34 26.1079C1200.01 23.0458 1203.47 21.0465 1205.96 22.8656C1207.21 23.7776 1208.9 23.7776 1210.15 22.8656C1212.63 21.0465 1216.1 23.0458 1215.76 26.1079C1215.6 27.6436 1216.44 29.1107 1217.86 29.7338C1220.68 30.9767 1220.68 34.9769 1217.86 36.2198C1216.44 36.843 1215.6 38.31 1215.76 39.8457ZM1206.32 41.3655C1207.35 40.6086 1208.76 40.6086 1209.79 41.3655C1211.85 42.8737 1214.73 41.217 1214.45 38.6789C1214.31 37.4078 1215.01 36.1928 1216.18 35.6771C1218.52 34.6485 1218.52 31.338 1216.18 30.3094C1215.01 29.7937 1214.31 28.5787 1214.45 27.3076C1214.73 24.7695 1211.85 23.1128 1209.79 24.6209C1208.76 25.3779 1207.35 25.3779 1206.32 24.6209C1204.26 23.1128 1201.38 24.7695 1201.66 27.3076C1201.8 28.5787 1201.1 29.7937 1199.93 30.3094C1197.59 31.338 1197.59 34.6485 1199.93 35.6771C1201.1 36.1928 1201.8 37.4078 1201.66 38.6789C1201.38 41.217 1204.26 42.8737 1206.32 41.3655Z" fill="#333333"/>
<path d="M1092.88 69.5771C1093.21 72.6393 1089.74 74.6386 1087.26 72.8195C1086.01 71.9074 1084.32 71.9074 1083.07 72.8195C1080.59 74.6386 1077.12 72.6393 1077.46 69.5771C1077.62 68.0415 1076.78 66.5744 1075.36 65.9512C1072.54 64.7084 1072.54 60.7082 1075.36 59.4653C1076.78 58.8421 1077.62 57.375 1077.46 55.8394C1077.12 52.7772 1080.59 50.778 1083.07 52.597C1084.32 53.5091 1086.01 53.5091 1087.26 52.597C1089.74 50.778 1093.21 52.7772 1092.88 55.8394C1092.71 57.375 1093.56 58.8421 1094.97 59.4653C1097.79 60.7082 1097.79 64.7084 1094.97 65.9512C1093.56 66.5744 1092.71 68.0415 1092.88 69.5771ZM1083.43 71.0805C1084.46 70.3236 1085.87 70.3236 1086.9 71.0805C1088.96 72.5887 1091.84 70.932 1091.56 68.3939C1091.42 67.1228 1092.12 65.9078 1093.29 65.3921C1095.63 64.3636 1095.63 61.053 1093.29 60.0244C1092.12 59.5087 1091.42 58.2937 1091.56 57.0226C1091.84 54.4845 1088.96 52.8278 1086.9 54.336C1085.87 55.0929 1084.46 55.0929 1083.43 54.336C1081.37 52.8278 1078.49 54.4845 1078.77 57.0226C1078.91 58.2937 1078.21 59.5087 1077.04 60.0244C1074.7 61.053 1074.7 64.3636 1077.04 65.3921C1078.21 65.9078 1078.91 67.1228 1078.77 68.3939C1078.49 70.932 1081.37 72.5887 1083.43 71.0805Z" fill="#333333"/>
<path d="M1100.71 55.7884C1099.38 55.7884 1098.31 54.7037 1098.31 53.3888C1098.31 52.074 1099.4 50.9893 1100.71 50.9893C1102.03 50.9893 1103.11 52.074 1103.11 53.3888C1103.11 54.7037 1102.03 55.7884 1100.71 55.7884ZM1100.71 52.1562C1100.04 52.1562 1099.5 52.6985 1099.5 53.3724C1099.5 54.0463 1100.04 54.5886 1100.71 54.5886C1101.39 54.5886 1101.93 54.0463 1101.93 53.3724C1101.93 52.6985 1101.39 52.1562 1100.71 52.1562Z" fill="#333333"/>
<path d="M1100.71 74.4261C1099.38 74.4261 1098.31 73.3414 1098.31 72.0265C1098.31 70.7117 1099.4 69.627 1100.71 69.627C1102.03 69.627 1103.11 70.7117 1103.11 72.0265C1103.11 73.3414 1102.03 74.4261 1100.71 74.4261ZM1100.71 70.8103C1100.04 70.8103 1099.5 71.3527 1099.5 72.0265C1099.5 72.7004 1100.04 73.2428 1100.71 73.2428C1101.39 73.2428 1101.93 72.7004 1101.93 72.0265C1101.93 71.3527 1101.39 70.8103 1100.71 70.8103Z" fill="#333333"/>
<path d="M1127.98 69.5771C1128.31 72.6393 1124.85 74.6386 1122.36 72.8195C1121.12 71.9074 1119.42 71.9074 1118.18 72.8195C1115.69 74.6386 1112.23 72.6393 1112.56 69.5771C1112.73 68.0415 1111.88 66.5744 1110.47 65.9512C1107.65 64.7084 1107.65 60.7082 1110.47 59.4653C1111.88 58.8421 1112.73 57.375 1112.56 55.8394C1112.23 52.7772 1115.69 50.778 1118.18 52.597C1119.42 53.5091 1121.12 53.5091 1122.36 52.597C1124.85 50.778 1128.31 52.7772 1127.98 55.8394C1127.81 57.375 1128.66 58.8421 1130.07 59.4653C1132.89 60.7082 1132.89 64.7084 1130.07 65.9512C1128.66 66.5744 1127.81 68.0415 1127.98 69.5771ZM1118.53 71.0805C1119.57 70.3236 1120.98 70.3236 1122.01 71.0805C1124.07 72.5887 1126.94 70.932 1126.67 68.3939C1126.53 67.1228 1127.23 65.9078 1128.4 65.3921C1130.73 64.3636 1130.73 61.053 1128.4 60.0244C1127.23 59.5087 1126.53 58.2937 1126.67 57.0226C1126.94 54.4845 1124.07 52.8278 1122.01 54.336C1120.98 55.0929 1119.57 55.0929 1118.53 54.336C1116.47 52.8278 1113.6 54.4845 1113.88 57.0226C1114.01 58.2937 1113.31 59.5087 1112.14 60.0244C1109.81 61.053 1109.81 64.3636 1112.14 65.3921C1113.31 65.9078 1114.01 67.1228 1113.88 68.3939C1113.6 70.932 1116.47 72.5887 1118.53 71.0805Z" fill="#333333"/>
<path d="M1135.82 55.7884C1134.49 55.7884 1133.42 54.7037 1133.42 53.3888C1133.42 52.074 1134.5 50.9893 1135.82 50.9893C1137.13 50.9893 1138.22 52.074 1138.22 53.3888C1138.22 54.7037 1137.13 55.7884 1135.82 55.7884ZM1135.82 52.1562C1135.15 52.1562 1134.6 52.6985 1134.6 53.3724C1134.6 54.0463 1135.15 54.5886 1135.82 54.5886C1136.49 54.5886 1137.04 54.0463 1137.04 53.3724C1137.04 52.6985 1136.49 52.1562 1135.82 52.1562Z" fill="#333333"/>
<path d="M1135.82 74.4261C1134.49 74.4261 1133.42 73.3414 1133.42 72.0265C1133.42 70.7117 1134.5 69.627 1135.82 69.627C1137.13 69.627 1138.22 70.7117 1138.22 72.0265C1138.22 73.3414 1137.13 74.4261 1135.82 74.4261ZM1135.82 70.8103C1135.15 70.8103 1134.6 71.3527 1134.6 72.0265C1134.6 72.7004 1135.15 73.2428 1135.82 73.2428C1136.49 73.2428 1137.04 72.7004 1137.04 72.0265C1137.04 71.3527 1136.49 70.8103 1135.82 70.8103Z" fill="#333333"/>
<path d="M1163.09 69.5771C1163.42 72.6393 1159.96 74.6386 1157.47 72.8195C1156.23 71.9074 1154.53 71.9074 1153.29 72.8195C1150.8 74.6386 1147.34 72.6393 1147.67 69.5771C1147.84 68.0415 1146.99 66.5744 1145.58 65.9512C1142.76 64.7084 1142.76 60.7082 1145.58 59.4653C1146.99 58.8421 1147.84 57.375 1147.67 55.8394C1147.34 52.7772 1150.8 50.778 1153.29 52.597C1154.53 53.5091 1156.23 53.5091 1157.47 52.597C1159.96 50.778 1163.42 52.7772 1163.09 55.8394C1162.92 57.375 1163.77 58.8421 1165.18 59.4653C1168 60.7082 1168 64.7084 1165.18 65.9512C1163.77 66.5744 1162.92 68.0415 1163.09 69.5771ZM1153.64 71.0805C1154.67 70.3236 1156.08 70.3236 1157.12 71.0805C1159.18 72.5887 1162.05 70.932 1161.77 68.3939C1161.64 67.1228 1162.34 65.9078 1163.51 65.3921C1165.84 64.3636 1165.84 61.053 1163.51 60.0244C1162.34 59.5087 1161.64 58.2937 1161.77 57.0226C1162.05 54.4845 1159.18 52.8278 1157.12 54.336C1156.08 55.0929 1154.67 55.0929 1153.64 54.336C1151.58 52.8278 1148.71 54.4845 1148.98 57.0226C1149.12 58.2937 1148.42 59.5087 1147.25 60.0244C1144.92 61.053 1144.92 64.3636 1147.25 65.3921C1148.42 65.9078 1149.12 67.1228 1148.98 68.3939C1148.71 70.932 1151.58 72.5887 1153.64 71.0805Z" fill="#333333"/>
<path d="M1170.93 55.7884C1169.6 55.7884 1168.53 54.7037 1168.53 53.3888C1168.53 52.074 1169.61 50.9893 1170.93 50.9893C1172.24 50.9893 1173.33 52.074 1173.33 53.3888C1173.33 54.7037 1172.24 55.7884 1170.93 55.7884ZM1170.93 52.1562C1170.25 52.1562 1169.71 52.6985 1169.71 53.3724C1169.71 54.0463 1170.25 54.5886 1170.93 54.5886C1171.6 54.5886 1172.14 54.0463 1172.14 53.3724C1172.14 52.6985 1171.6 52.1562 1170.93 52.1562Z" fill="#333333"/>
<path d="M1170.93 74.4261C1169.6 74.4261 1168.53 73.3414 1168.53 72.0265C1168.53 70.7117 1169.61 69.627 1170.93 69.627C1172.24 69.627 1173.33 70.7117 1173.33 72.0265C1173.33 73.3414 1172.24 74.4261 1170.93 74.4261ZM1170.93 70.8103C1170.25 70.8103 1169.71 71.3527 1169.71 72.0265C1169.71 72.7004 1170.25 73.2428 1170.93 73.2428C1171.6 73.2428 1172.14 72.7004 1172.14 72.0265C1172.14 71.3527 1171.6 70.8103 1170.93 70.8103Z" fill="#333333"/>
<path d="M1198.21 69.5771C1198.54 72.6393 1195.08 74.6386 1192.59 72.8195C1191.35 71.9074 1189.65 71.9074 1188.41 72.8195C1185.92 74.6386 1182.46 72.6393 1182.79 69.5771C1182.96 68.0415 1182.11 66.5744 1180.7 65.9512C1177.88 64.7084 1177.88 60.7082 1180.7 59.4653C1182.11 58.8421 1182.96 57.375 1182.79 55.8394C1182.46 52.7772 1185.92 50.778 1188.41 52.597C1189.65 53.5091 1191.35 53.5091 1192.59 52.597C1195.08 50.778 1198.54 52.7772 1198.21 55.8394C1198.04 57.375 1198.89 58.8421 1200.3 59.4653C1203.12 60.7082 1203.12 64.7084 1200.3 65.9512C1198.89 66.5744 1198.04 68.0415 1198.21 69.5771ZM1188.76 71.0805C1189.8 70.3236 1191.2 70.3236 1192.24 71.0805C1194.3 72.5887 1197.17 70.932 1196.9 68.3939C1196.76 67.1228 1197.46 65.9078 1198.63 65.3921C1200.96 64.3636 1200.96 61.053 1198.63 60.0244C1197.46 59.5087 1196.76 58.2937 1196.9 57.0226C1197.17 54.4845 1194.3 52.8278 1192.24 54.336C1191.2 55.0929 1189.8 55.0929 1188.76 54.336C1186.7 52.8278 1183.83 54.4845 1184.1 57.0226C1184.24 58.2937 1183.54 59.5087 1182.37 60.0244C1180.04 61.053 1180.04 64.3636 1182.37 65.3921C1183.54 65.9078 1184.24 67.1228 1184.1 68.3939C1183.83 70.932 1186.7 72.5887 1188.76 71.0805Z" fill="#333333"/>
<path d="M1110.43 99.292C1110.76 102.354 1107.3 104.353 1104.81 102.534C1103.57 101.622 1101.87 101.622 1100.63 102.534C1098.14 104.353 1094.68 102.354 1095.01 99.292C1095.18 97.7563 1094.33 96.2893 1092.92 95.6661C1090.1 94.4232 1090.1 90.423 1092.92 89.1801C1094.33 88.5569 1095.18 87.0899 1095.01 85.5542C1094.68 82.4921 1098.14 80.4928 1100.63 82.3119C1101.87 83.2239 1103.57 83.2239 1104.81 82.3119C1107.3 80.4928 1110.76 82.4921 1110.43 85.5542C1110.26 87.0899 1111.11 88.5569 1112.52 89.1801C1115.34 90.423 1115.34 94.4232 1112.52 95.6661C1111.11 96.2893 1110.26 97.7563 1110.43 99.292ZM1100.98 100.812C1102.02 100.055 1103.42 100.055 1104.46 100.812C1106.52 102.32 1109.39 100.663 1109.11 98.1252C1108.98 96.854 1109.68 95.6391 1110.85 95.1234C1113.18 94.0948 1113.18 90.7842 1110.85 89.7557C1109.68 89.2399 1108.98 88.025 1109.11 86.7539C1109.39 84.2158 1106.52 82.5591 1104.46 84.0672C1103.42 84.8242 1102.02 84.8242 1100.98 84.0672C1098.92 82.5591 1096.05 84.2158 1096.32 86.7539C1096.46 88.025 1095.76 89.2399 1094.59 89.7557C1092.26 90.7842 1092.26 94.0948 1094.59 95.1234C1095.76 95.6391 1096.46 96.854 1096.32 98.1252C1096.05 100.663 1098.92 102.32 1100.98 100.812Z" fill="#333333"/>
<path d="M1118.27 85.5052C1116.94 85.5052 1115.87 84.4205 1115.87 83.1056C1115.87 81.7908 1116.95 80.7061 1118.27 80.7061C1119.58 80.7061 1120.67 81.7908 1120.67 83.1056C1120.67 84.4205 1119.58 85.5052 1118.27 85.5052ZM1118.27 81.8894C1117.59 81.8894 1117.05 82.4318 1117.05 83.1056C1117.05 83.7795 1117.59 84.3219 1118.27 84.3219C1118.94 84.3219 1119.48 83.7795 1119.48 83.1056C1119.48 82.4318 1118.94 81.8894 1118.27 81.8894Z" fill="#333333"/>
<path d="M1118.27 104.159C1116.94 104.159 1115.87 103.074 1115.87 101.759C1115.87 100.444 1116.95 99.3594 1118.27 99.3594C1119.58 99.3594 1120.67 100.444 1120.67 101.759C1120.67 103.074 1119.58 104.159 1118.27 104.159ZM1118.27 100.526C1117.59 100.526 1117.05 101.069 1117.05 101.743C1117.05 102.416 1117.59 102.959 1118.27 102.959C1118.94 102.959 1119.48 102.416 1119.48 101.743C1119.48 101.069 1118.94 100.526 1118.27 100.526Z" fill="#333333"/>
<path d="M1145.53 99.292C1145.87 102.354 1142.4 104.353 1139.92 102.534C1138.67 101.622 1136.98 101.622 1135.73 102.534C1133.25 104.353 1129.78 102.354 1130.12 99.292C1130.28 97.7563 1129.44 96.2893 1128.02 95.6661C1125.2 94.4232 1125.2 90.423 1128.02 89.1801C1129.44 88.5569 1130.28 87.0899 1130.12 85.5542C1129.78 82.4921 1133.25 80.4928 1135.73 82.3119C1136.98 83.2239 1138.67 83.2239 1139.92 82.3119C1142.4 80.4928 1145.87 82.4921 1145.53 85.5542C1145.37 87.0899 1146.21 88.5569 1147.63 89.1801C1150.45 90.423 1150.45 94.4232 1147.63 95.6661C1146.21 96.2893 1145.37 97.7563 1145.53 99.292ZM1136.09 100.812C1137.12 100.055 1138.53 100.055 1139.56 100.812C1141.62 102.32 1144.5 100.663 1144.22 98.1252C1144.08 96.854 1144.78 95.6391 1145.95 95.1234C1148.29 94.0948 1148.29 90.7842 1145.95 89.7557C1144.78 89.2399 1144.08 88.025 1144.22 86.7539C1144.5 84.2158 1141.62 82.5591 1139.56 84.0672C1138.53 84.8242 1137.12 84.8242 1136.09 84.0672C1134.03 82.5591 1131.15 84.2158 1131.43 86.7539C1131.57 88.025 1130.87 89.2399 1129.7 89.7557C1127.36 90.7842 1127.36 94.0948 1129.7 95.1234C1130.87 95.6391 1131.57 96.854 1131.43 98.1252C1131.15 100.663 1134.03 102.32 1136.09 100.812Z" fill="#333333"/>
<path d="M1153.37 85.5052C1152.04 85.5052 1150.97 84.4205 1150.97 83.1056C1150.97 81.7908 1152.06 80.7061 1153.37 80.7061C1154.69 80.7061 1155.77 81.7908 1155.77 83.1056C1155.77 84.4205 1154.69 85.5052 1153.37 85.5052ZM1153.37 81.8894C1152.7 81.8894 1152.16 82.4318 1152.16 83.1056C1152.16 83.7795 1152.7 84.3219 1153.37 84.3219C1154.05 84.3219 1154.59 83.7795 1154.59 83.1056C1154.59 82.4318 1154.05 81.8894 1153.37 81.8894Z" fill="#333333"/>
<path d="M1153.37 104.159C1152.04 104.159 1150.97 103.074 1150.97 101.759C1150.97 100.444 1152.06 99.3594 1153.37 99.3594C1154.69 99.3594 1155.77 100.444 1155.77 101.759C1155.77 103.074 1154.69 104.159 1153.37 104.159ZM1153.37 100.526C1152.7 100.526 1152.16 101.069 1152.16 101.743C1152.16 102.416 1152.7 102.959 1153.37 102.959C1154.05 102.959 1154.59 102.416 1154.59 101.743C1154.59 101.069 1154.05 100.526 1153.37 100.526Z" fill="#333333"/>
<path d="M1180.64 99.292C1180.97 102.354 1177.51 104.353 1175.02 102.534C1173.78 101.622 1172.08 101.622 1170.84 102.534C1168.35 104.353 1164.89 102.354 1165.22 99.292C1165.39 97.7563 1164.54 96.2893 1163.13 95.6661C1160.31 94.4232 1160.31 90.423 1163.13 89.1801C1164.54 88.5569 1165.39 87.0899 1165.22 85.5542C1164.89 82.4921 1168.35 80.4928 1170.84 82.3119C1172.08 83.2239 1173.78 83.2239 1175.02 82.3119C1177.51 80.4928 1180.97 82.4921 1180.64 85.5542C1180.47 87.0899 1181.32 88.5569 1182.73 89.1801C1185.55 90.423 1185.55 94.4232 1182.73 95.6661C1181.32 96.2893 1180.47 97.7563 1180.64 99.292ZM1171.19 100.812C1172.23 100.055 1173.63 100.055 1174.67 100.812C1176.73 102.32 1179.6 100.663 1179.33 98.1252C1179.19 96.854 1179.89 95.6391 1181.06 95.1234C1183.39 94.0948 1183.39 90.7842 1181.06 89.7557C1179.89 89.2399 1179.19 88.025 1179.33 86.7539C1179.6 84.2158 1176.73 82.5591 1174.67 84.0672C1173.63 84.8242 1172.23 84.8242 1171.19 84.0672C1169.13 82.5591 1166.26 84.2158 1166.54 86.7539C1166.67 88.025 1165.97 89.2399 1164.8 89.7557C1162.47 90.7842 1162.47 94.0948 1164.8 95.1234C1165.97 95.6391 1166.67 96.854 1166.54 98.1252C1166.26 100.663 1169.13 102.32 1171.19 100.812Z" fill="#333333"/>
<path d="M1188.48 85.5052C1187.15 85.5052 1186.08 84.4205 1186.08 83.1056C1186.08 81.7908 1187.16 80.7061 1188.48 80.7061C1189.79 80.7061 1190.88 81.7908 1190.88 83.1056C1190.88 84.4205 1189.79 85.5052 1188.48 85.5052ZM1188.48 81.8894C1187.81 81.8894 1187.26 82.4318 1187.26 83.1056C1187.26 83.7795 1187.81 84.3219 1188.48 84.3219C1189.15 84.3219 1189.7 83.7795 1189.7 83.1056C1189.7 82.4318 1189.15 81.8894 1188.48 81.8894Z" fill="#333333"/>
<path d="M1188.48 104.159C1187.15 104.159 1186.08 103.074 1186.08 101.759C1186.08 100.444 1187.16 99.3594 1188.48 99.3594C1189.79 99.3594 1190.88 100.444 1190.88 101.759C1190.88 103.074 1189.79 104.159 1188.48 104.159ZM1188.48 100.526C1187.81 100.526 1187.26 101.069 1187.26 101.743C1187.26 102.416 1187.81 102.959 1188.48 102.959C1189.15 102.959 1189.7 102.416 1189.7 101.743C1189.7 101.069 1189.15 100.526 1188.48 100.526Z" fill="#333333"/>
<path d="M1215.76 99.292C1216.1 102.354 1212.63 104.353 1210.15 102.534C1208.9 101.622 1207.21 101.622 1205.96 102.534C1203.47 104.353 1200.01 102.354 1200.34 99.292C1200.51 97.7563 1199.66 96.2893 1198.25 95.6661C1195.43 94.4232 1195.43 90.423 1198.25 89.1801C1199.66 88.5569 1200.51 87.0899 1200.34 85.5542C1200.01 82.4921 1203.47 80.4928 1205.96 82.3119C1207.21 83.2239 1208.9 83.2239 1210.15 82.3119C1212.63 80.4928 1216.1 82.4921 1215.76 85.5542C1215.6 87.0899 1216.44 88.5569 1217.86 89.1801C1220.68 90.423 1220.68 94.4232 1217.86 95.6661C1216.44 96.2893 1215.6 97.7563 1215.76 99.292ZM1206.32 100.812C1207.35 100.055 1208.76 100.055 1209.79 100.812C1211.85 102.32 1214.73 100.663 1214.45 98.1252C1214.31 96.854 1215.01 95.6391 1216.18 95.1234C1218.52 94.0948 1218.52 90.7842 1216.18 89.7557C1215.01 89.2399 1214.31 88.025 1214.45 86.7539C1214.73 84.2158 1211.85 82.5591 1209.79 84.0672C1208.76 84.8242 1207.35 84.8242 1206.32 84.0672C1204.26 82.5591 1201.38 84.2158 1201.66 86.7539C1201.8 88.025 1201.1 89.2399 1199.93 89.7557C1197.59 90.7842 1197.59 94.0948 1199.93 95.1234C1201.1 95.6391 1201.8 96.854 1201.66 98.1252C1201.38 100.663 1204.26 102.32 1206.32 100.812Z" fill="#333333"/>
<path d="M1127.98 129.024C1128.31 132.087 1124.85 134.086 1122.36 132.267C1121.12 131.355 1119.42 131.355 1118.18 132.267C1115.69 134.086 1112.23 132.087 1112.56 129.024C1112.73 127.489 1111.88 126.022 1110.47 125.399C1107.65 124.156 1107.65 120.155 1110.47 118.913C1111.88 118.289 1112.73 116.822 1112.56 115.287C1112.23 112.225 1115.69 110.225 1118.18 112.044C1119.42 112.956 1121.12 112.956 1122.36 112.044C1124.85 110.225 1128.31 112.225 1127.98 115.287C1127.81 116.822 1128.66 118.289 1130.07 118.913C1132.89 120.155 1132.89 124.156 1130.07 125.399C1128.66 126.022 1127.81 127.489 1127.98 129.024ZM1118.53 130.528C1119.57 129.771 1120.98 129.771 1122.01 130.528C1124.07 132.036 1126.94 130.379 1126.67 127.841C1126.53 126.57 1127.23 125.355 1128.4 124.839C1130.73 123.811 1130.73 120.5 1128.4 119.472C1127.23 118.956 1126.53 117.741 1126.67 116.47C1126.94 113.932 1124.07 112.275 1122.01 113.783C1120.98 114.54 1119.57 114.54 1118.53 113.783C1116.47 112.275 1113.6 113.932 1113.88 116.47C1114.01 117.741 1113.31 118.956 1112.14 119.472C1109.81 120.5 1109.81 123.811 1112.14 124.839C1113.31 125.355 1114.01 126.57 1113.88 127.841C1113.6 130.379 1116.47 132.036 1118.53 130.528Z" fill="#333333"/>
<path d="M1135.82 115.219C1134.49 115.219 1133.42 114.134 1133.42 112.819C1133.42 111.505 1134.5 110.42 1135.82 110.42C1137.13 110.42 1138.22 111.505 1138.22 112.819C1138.22 114.134 1137.13 115.219 1135.82 115.219ZM1135.82 111.603C1135.15 111.603 1134.6 112.146 1134.6 112.819C1134.6 113.493 1135.15 114.036 1135.82 114.036C1136.49 114.036 1137.04 113.493 1137.04 112.819C1137.04 112.146 1136.49 111.603 1135.82 111.603Z" fill="#333333"/>
<path d="M1163.09 129.024C1163.42 132.087 1159.96 134.086 1157.47 132.267C1156.23 131.355 1154.53 131.355 1153.29 132.267C1150.8 134.086 1147.34 132.087 1147.67 129.024C1147.84 127.489 1146.99 126.022 1145.58 125.399C1142.76 124.156 1142.76 120.155 1145.58 118.913C1146.99 118.289 1147.84 116.822 1147.67 115.287C1147.34 112.225 1150.8 110.225 1153.29 112.044C1154.53 112.956 1156.23 112.956 1157.47 112.044C1159.96 110.225 1163.42 112.225 1163.09 115.287C1162.92 116.822 1163.77 118.289 1165.18 118.913C1168 120.155 1168 124.156 1165.18 125.399C1163.77 126.022 1162.92 127.489 1163.09 129.024ZM1153.64 130.528C1154.67 129.771 1156.08 129.771 1157.12 130.528C1159.18 132.036 1162.05 130.379 1161.77 127.841C1161.64 126.57 1162.34 125.355 1163.51 124.839C1165.84 123.811 1165.84 120.5 1163.51 119.472C1162.34 118.956 1161.64 117.741 1161.77 116.47C1162.05 113.932 1159.18 112.275 1157.12 113.783C1156.08 114.54 1154.67 114.54 1153.64 113.783C1151.58 112.275 1148.71 113.932 1148.98 116.47C1149.12 117.741 1148.42 118.956 1147.25 119.472C1144.92 120.5 1144.92 123.811 1147.25 124.839C1148.42 125.355 1149.12 126.57 1148.98 127.841C1148.71 130.379 1151.58 132.036 1153.64 130.528Z" fill="#333333"/>
<path d="M1170.93 115.219C1169.59 115.219 1168.53 114.134 1168.53 112.819C1168.53 111.505 1169.61 110.42 1170.93 110.42C1172.24 110.42 1173.33 111.505 1173.33 112.819C1173.33 114.134 1172.24 115.219 1170.93 115.219ZM1170.93 111.603C1170.25 111.603 1169.71 112.146 1169.71 112.819C1169.71 113.493 1170.25 114.036 1170.93 114.036C1171.6 114.036 1172.14 113.493 1172.14 112.819C1172.14 112.146 1171.6 111.603 1170.93 111.603Z" fill="#333333"/>
<path d="M1198.21 129.024C1198.54 132.087 1195.08 134.086 1192.59 132.267C1191.35 131.355 1189.65 131.355 1188.41 132.267C1185.92 134.086 1182.46 132.087 1182.79 129.024C1182.96 127.489 1182.11 126.022 1180.7 125.399C1177.88 124.156 1177.88 120.155 1180.7 118.913C1182.11 118.289 1182.96 116.822 1182.79 115.287C1182.46 112.225 1185.92 110.225 1188.41 112.044C1189.65 112.956 1191.35 112.956 1192.59 112.044C1195.08 110.225 1198.54 112.225 1198.21 115.287C1198.04 116.822 1198.89 118.289 1200.3 118.913C1203.12 120.155 1203.12 124.156 1200.3 125.399C1198.89 126.022 1198.04 127.489 1198.21 129.024ZM1188.76 130.528C1189.8 129.771 1191.2 129.771 1192.24 130.528C1194.3 132.036 1197.17 130.379 1196.9 127.841C1196.76 126.57 1197.46 125.355 1198.63 124.839C1200.96 123.811 1200.96 120.5 1198.63 119.472C1197.46 118.956 1196.76 117.741 1196.9 116.47C1197.17 113.932 1194.3 112.275 1192.24 113.783C1191.2 114.54 1189.8 114.54 1188.76 113.783C1186.7 112.275 1183.83 113.932 1184.1 116.47C1184.24 117.741 1183.54 118.956 1182.37 119.472C1180.04 120.5 1180.04 123.811 1182.37 124.839C1183.54 125.355 1184.24 126.57 1184.1 127.841C1183.83 130.379 1186.7 132.036 1188.76 130.528Z" fill="#333333"/>
</g>
</g>
<g filter="url(#filter0_d_202_19253)">
<path d="M1168.37 138.8C1162.12 145.048 1151.99 145.048 1145.74 138.8L1125.39 118.444C1122.38 115.444 1118.32 113.758 1114.07 113.758H1084.55C1075.71 113.758 1068.55 106.595 1068.55 97.758V68.2357C1068.55 63.9922 1066.86 59.9225 1063.86 56.922L1043 36.0572C1036.75 29.8088 1036.75 19.6782 1043 13.4298L1063.86 -7.435C1066.86 -10.4356 1068.55 -14.5052 1068.55 -18.7487V-47.5314C1068.55 -56.368 1075.71 -63.5314 1084.55 -63.5314H1113.33C1117.58 -63.5314 1121.65 -65.2172 1124.65 -68.2177L1145 -88.573C1151.25 -94.8214 1161.38 -94.8214 1167.63 -88.573L1187.98 -68.2177C1190.98 -65.2172 1195.05 -63.5314 1199.3 -63.5314H1228.82C1237.66 -63.5314 1244.82 -56.368 1244.82 -47.5314V-18.0091C1244.82 -13.7656 1246.51 -9.69598 1249.51 -6.6954L1270.37 14.1694C1276.62 20.4177 1276.62 30.5484 1270.37 36.7968L1249.51 57.6615C1246.51 60.6621 1244.82 64.7318 1244.82 68.9753V97.758C1244.82 106.595 1237.66 113.758 1228.82 113.758H1200.04C1195.79 113.758 1191.72 115.444 1188.72 118.444L1168.37 138.8ZM1073.17 109.14C1073.17 109.149 1073.18 109.156 1073.18 109.156H1115.99C1120.24 109.156 1124.31 110.842 1127.31 113.842L1145.76 132.291C1152.01 138.54 1162.14 138.54 1168.38 132.291L1186.83 113.842C1189.83 110.842 1193.9 109.156 1198.15 109.156H1224.23C1233.07 109.156 1240.23 101.993 1240.23 93.1561V67.0688C1240.23 62.8253 1241.92 58.7556 1244.92 55.7551L1263.88 36.7968C1270.13 30.5484 1270.13 20.4178 1263.88 14.1694L1244.92 -4.78888C1241.92 -7.78947 1240.23 -11.8591 1240.23 -16.1026V-42.9295C1240.23 -51.7661 1233.07 -58.9295 1224.23 -58.9295H1197.41C1193.16 -58.9295 1189.09 -60.6152 1186.09 -63.6158L1167.65 -82.0646C1161.4 -88.313 1151.27 -88.313 1145.02 -82.0646L1126.57 -63.6158C1123.57 -60.6152 1119.5 -58.9295 1115.26 -58.9295H1089.17C1080.33 -58.9295 1073.17 -51.7661 1073.17 -42.9295V-16.8422C1073.17 -12.5987 1071.48 -8.52907 1068.48 -5.52849L1049.52 13.4298C1043.27 19.6782 1043.27 29.8088 1049.52 36.0572L1068.48 55.0155C1071.48 58.016 1073.17 62.0857 1073.17 66.3292V109.14Z" fill="#323B7E"/>
</g>
</g>
</g>
<defs>
<filter id="filter0_d_202_19253" x="1030.09" y="-98.1904" width="249.893" height="249.894" filterUnits="userSpaceOnUse" color-interpolation-filters="sRGB">
<feFlood flood-opacity="0" result="BackgroundImageFix"/>
<feColorMatrix in="SourceAlpha" type="matrix" values="0 0 0 0 0 0 0 0 0 0 0 0 0 0 0 0 0 0 127 0" result="hardAlpha"/>
<feOffset dx="-1.64355" dy="1.64355"/>
<feGaussianBlur stdDeviation="3.28709"/>
<feColorMatrix type="matrix" values="0 0 0 0 0.137255 0 0 0 0 0.137255 0 0 0 0 0.137255 0 0 0 0.3 0"/>
<feBlend mode="normal" in2="BackgroundImageFix" result="effect1_dropShadow_202_19253"/>
<feBlend mode="normal" in="SourceGraphic" in2="effect1_dropShadow_202_19253" result="shape"/>
</filter>
<linearGradient id="paint0_linear_202_19253" x1="1200" y1="-5.07131e-05" x2="-36.6551" y2="436.043" gradientUnits="userSpaceOnUse">
<stop stop-color="#E9EAFC" stop-opacity="0.2"/>
<stop offset="1" stop-color="#EDB545" stop-opacity="0.1"/>
</linearGradient>
</defs>
</svg>
